<?xml version="1.0" encoding="UTF-8"?>
<svg id="Layer_2" data-name="Layer 2" xmlns="http://www.w3.org/2000/svg" viewBox="0 0 231.25 255.05">
  <defs>
    <style>
      .cls-1 {
        fill: #a7d38c;
      }

      .cls-1, .cls-2, .cls-3, .cls-4, .cls-5, .cls-6, .cls-7, .cls-8, .cls-9, .cls-10, .cls-11, .cls-12 {
        stroke-miterlimit: 10;
      }

      .cls-1, .cls-2, .cls-3, .cls-4, .cls-5, .cls-6, .cls-7, .cls-9, .cls-11, .cls-12 {
        stroke: #231f20;
      }

      .cls-2 {
        fill: #2f9297;
      }

      .cls-3, .cls-5 {
        stroke-width: 2px;
      }

      .cls-3, .cls-13 {
        fill: #000;
      }

      .cls-4, .cls-6, .cls-8, .cls-10 {
        fill: none;
      }

      .cls-5, .cls-9 {
        fill: #8dac7d;
      }

      .cls-6, .cls-8, .cls-10 {
        stroke-width: 5px;
      }

      .cls-7 {
        fill: #80a0b0;
      }

      .cls-8 {
        stroke: #bcbec0;
      }

      .cls-13, .cls-14 {
        stroke-width: 0px;
      }

      .cls-10 {
        stroke: #58595b;
      }

      .cls-11 {
        fill: #4db488;
      }

      .cls-14 {
        fill: #231f20;
      }

      .cls-12 {
        fill: #5dbd75;
      }
    </style>
  </defs>
  <g id="Layer_1-2" data-name="Layer 1">
    <circle class="cls-6" cx="117.51" cy="127.53" r="104.48"/>
    <circle class="cls-8" cx="117.51" cy="127.53" r="86.4"/>
    <circle class="cls-10" cx="117.51" cy="127.53" r="95.61"/>
    <g>
      <circle class="cls-12" cx="31.92" cy="174.2" r="31.42"/>
      <path class="cls-13" d="M31.46,164.32c1.99-.03,3.86.46,5.67,1.27,2.4,1.07,4.48,2.61,6.4,4.38,1.22,1.12,2.35,2.32,3.34,3.66.34.47.34.77-.02,1.22-1.05,1.32-2.16,2.59-3.44,3.69-1.06.91-2.12,1.81-3.26,2.61-1.56,1.11-3.28,1.93-5.14,2.46-1.6.46-3.23.61-4.87.44-1.42-.15-2.79-.54-4.11-1.12-1.91-.83-3.65-1.94-5.26-3.26-1.71-1.41-3.28-2.97-4.67-4.69-.47-.58-.47-.93-.01-1.52,2.19-2.77,4.78-5.08,7.8-6.9,1.49-.9,3.1-1.58,4.81-1.94.91-.19,1.84-.26,2.77-.38,0,.03,0,.05,0,.08ZM31.42,182.42c.27-.02.53-.06.8-.07,1.81-.09,3.49-.68,5.07-1.52,3.01-1.6,5.47-3.87,7.66-6.45.12-.14.11-.23-.01-.35-.23-.25-.45-.52-.68-.78-1.68-1.9-3.56-3.57-5.71-4.92-1.67-1.04-3.43-1.83-5.39-2.17-1.35-.23-2.68-.18-4,.11-1.93.42-3.68,1.27-5.32,2.36-2.24,1.51-4.2,3.33-5.96,5.38-.13.15-.11.25.01.39.46.51.91,1.03,1.39,1.53,1.99,2.06,4.2,3.82,6.78,5.1,1.68.84,3.46,1.32,5.35,1.38Z"/>
      <g>
        <path class="cls-13" d="M31.95,164.33c1.99-.03,3.86.46,5.67,1.27,2.4,1.07,4.48,2.61,6.4,4.38,1.22,1.12,2.35,2.32,3.34,3.66.34.47.34.77-.02,1.22-1.05,1.32-2.16,2.59-3.44,3.69-1.06.91-2.12,1.81-3.26,2.61-1.56,1.11-3.28,1.93-5.14,2.46-1.6.46-3.23.61-4.87.44-1.42-.15-2.79-.54-4.11-1.12-1.91-.83-3.65-1.94-5.26-3.26-1.71-1.41-3.28-2.97-4.67-4.69-.47-.58-.47-.93-.01-1.52,2.19-2.77,4.78-5.08,7.8-6.9,1.49-.9,3.1-1.58,4.81-1.94.91-.19,1.84-.26,2.77-.38,0,.03,0,.05,0,.08ZM31.91,182.44c.27-.02.53-.06.8-.07,1.81-.09,3.49-.68,5.07-1.52,3.01-1.6,5.47-3.87,7.66-6.45.12-.14.11-.23-.01-.35-.23-.25-.45-.52-.68-.78-1.68-1.9-3.56-3.57-5.71-4.92-1.67-1.04-3.43-1.83-5.39-2.17-1.35-.23-2.68-.18-4,.11-1.93.42-3.68,1.27-5.32,2.36-2.24,1.51-4.2,3.33-5.96,5.38-.13.15-.11.25.01.39.46.51.91,1.03,1.39,1.53,1.99,2.06,4.2,3.82,6.78,5.1,1.68.84,3.46,1.32,5.35,1.38Z"/>
        <path class="cls-13" d="M28,183.17c-2.78.02-5.2-2.18-5.15-4.82.06-2.68,2.3-4.78,5.11-4.79,2.73,0,4.92,2.11,4.94,4.78.02,2.64-2.18,4.81-4.91,4.82ZM29.67,178.38c0-.96-.74-1.68-1.7-1.67-.99.01-1.91.81-1.91,1.66,0,.85,1.01,1.73,1.96,1.7.9-.03,1.65-.8,1.65-1.69Z"/>
      </g>
    </g>
    <g>
      <circle class="cls-2" cx="117.51" cy="31.92" r="31.42"/>
      <g>
        <path class="cls-13" d="M102.47,38.96h2.01v5.87h5.93v2.14h-7.94v-8.01Z"/>
        <path class="cls-13" d="M132.56,38.99v7.97h-7.99v-2.06h5.89v-5.91h2.1Z"/>
        <path class="cls-13" d="M104.54,24.84h-2.08v-7.98h7.99v2.07h-5.9v5.91Z"/>
        <path class="cls-13" d="M130.47,24.81v-5.84h-5.91v-2.11h7.99v7.95h-2.08Z"/>
        <g>
          <path class="cls-13" d="M118.87,20.84c.76.14,1.53.23,2.27.44,4.71,1.31,7.78,5.73,7.39,10.62-.38,4.8-4.01,8.67-8.73,9.32-.35.05-.69.09-1.04.13h-.67c-.18-.03-.36-.09-.54-.1-4.14-.32-7.76-3.29-8.87-7.32-.21-.78-.31-1.59-.46-2.38,0-.3,0-.59,0-.89.03-.16.09-.32.1-.48.41-4.3,3.33-7.81,7.49-8.93.71-.19,1.44-.27,2.16-.4.3,0,.59,0,.89,0ZM118.45,40.62c5.24-.02,9.46-4.27,9.46-9.53,0-5.27-4.28-9.57-9.51-9.54-5.24.03-9.45,4.27-9.46,9.53-.01,5.27,4.27,9.57,9.51,9.54Z"/>
          <path class="cls-13" d="M109.8,31.04c.03-4.76,3.95-8.65,8.69-8.62,4.71.03,8.58,3.96,8.57,8.69-.02,4.76-3.94,8.68-8.67,8.66-4.73-.02-8.62-3.96-8.59-8.73ZM118.41,39.1c4.36.02,7.97-3.6,7.98-7.99.01-4.38-3.58-8.01-7.95-8.03-4.36-.02-7.97,3.6-7.98,7.99-.01,4.39,3.58,8.01,7.95,8.02Z"/>
          <path class="cls-13" d="M116.46,28.42c-.2.19-.33.31-.46.43-.11-.13-.32-.27-.32-.39,0-.14.19-.32.33-.38.06-.03.23.18.44.35Z"/>
          <path class="cls-13" d="M117.06,25.85c.18.28.36.44.33.54-.05.17-.23.3-.36.45-.09-.13-.26-.26-.26-.39,0-.15.14-.31.29-.6Z"/>
          <path class="cls-13" d="M113.62,27.36c-.15-.27-.3-.42-.28-.54.03-.16.19-.29.29-.43.12.13.32.25.33.39,0,.15-.16.3-.34.59Z"/>
          <path class="cls-13" d="M116.38,32.79c-.21.19-.33.38-.47.4-.1.02-.35-.23-.33-.29.05-.17.2-.34.35-.45.03-.02.23.17.45.34Z"/>
          <path class="cls-13" d="M114.52,36.07c-.16-.3-.31-.46-.29-.58.03-.15.2-.28.31-.42.11.13.3.25.3.38,0,.15-.15.31-.32.62Z"/>
          <path class="cls-13" d="M116.83,37.08c-.15-.26-.31-.41-.29-.53.02-.15.19-.29.3-.43.11.14.29.28.31.43.02.12-.16.27-.33.53Z"/>
          <path class="cls-13" d="M113.5,33.04c-.21.18-.34.35-.48.37-.08.01-.31-.23-.29-.33.03-.15.2-.28.32-.42.12.1.24.2.45.38Z"/>
          <circle class="cls-4" cx="122.8" cy="31.45" r="2.1"/>
        </g>
      </g>
    </g>
    <g>
      <circle class="cls-11" cx="34.16" cy="79.67" r="31.42"/>
      <g>
        <path class="cls-14" d="M47.88,82.08c-.31-.08-.61-.16-.92-.24-1.04-.27-2.08-.23-3.13-.1-1.42-3.43-2.85-6.85-4.27-10.28.7-.53,1.17-1.22,1.46-2.05,0-.26.02-.52.02-.78-.04-.15-.09-.29-.13-.44-.34-1.28-1.32-2.2-2.45-2.27-1.61-.1-2.74.59-3.25,1.98-.07.2-.14.4-.22.59v.74c.43,1.27,1.13,2.27,2.56,2.54.4.07.79.08,1.16-.08.09.15.21.29.27.45,1.36,3.26,2.71,6.52,4.06,9.78-1.11.38-2.14.9-2.96,1.73-.34.35-.52.21-.81-.04-1.14-1.01-2.31-1.99-3.46-2.98,0,0,0,0,0,0,.08-.48.21-.95.11-1.45-.15-.75-.88-1.54-1.44-1.39-.47.12-.89-.03-1.33-.01-1.07-1.43-2.14-2.87-3.21-4.3.55-1.36.83-2.76.8-4.23,1.42,0,2.83,0,4.25-.01,0-.25,0-.49,0-.74-1.47,0-2.93,0-4.4,0-1.43-4.77-4.46-6.23-8.82-5.94-3.78.25-6.97,4.79-6.2,8.66.68,3.45,2.79,5.52,6.18,6.33.27.02.54.03.8.05.97.07,1.91-.1,2.86-.24.24-.09.49-.18.73-.27,1.35-.69,2.43-1.72,3.41-2.85.98,1.35,1.97,2.7,2.95,4.04-.33.59-.61,1.19-.39,1.9.42,1.34,1.65,1.75,3.19,1.04,1.14.99,2.27,1.99,3.43,2.96.37.31.43.53.13.93-.32.43-.52.95-.77,1.43-2.38-.13-4.76-.25-7.15-.38,0,.25-.02.5-.03.75,2.32.14,4.64.28,6.96.42-.39,1.34-.29,2.68,0,4.02.11.27.21.54.31.8,1.27,2.85,3.46,4.48,6.56,4.67,3.23.19,5.69-1.23,7.21-4.08,2.03-3.81.46-8.86-4.11-10.65Z"/>
        <path class="cls-14" d="M27.62,83.34c-.09-.03-.17-.04-.25-.04-.11-.09-.09-.28-.12-.43-.37-1.93-.73-3.86-1.1-5.8-.24.09-.49.18-.73.27.38,2.08.75,4.16,1.13,6.24-.19.15-.39.29-.57.45-.93.85-1.23,2.2-.74,3.35.5,1.18,1.61,1.86,2.92,1.79,1.49-.08,2.25-1.03,2.78-2.28,0-.25.02-.5.03-.75-.11-1.7-1.62-3.12-3.34-2.8Z"/>
      </g>
    </g>
    <g>
      <circle class="cls-9" cx="196.64" cy="174.2" r="31.42"/>
      <g>
        <polygon class="cls-5" points="201.38 182.89 177.62 182.89 191.91 176.94 215.66 176.94 201.38 182.89"/>
        <polygon class="cls-3" points="201.38 178.71 177.62 178.71 191.91 173.13 215.66 173.13 201.38 178.71"/>
        <polygon class="cls-5" points="201.38 174.89 177.62 174.89 191.91 169.31 215.66 169.31 201.38 174.89"/>
        <polygon class="cls-3" points="201.38 171.08 177.62 171.08 191.91 165.5 215.66 165.5 201.38 171.08"/>
      </g>
    </g>
    <g>
      <circle class="cls-7" cx="117.51" cy="223.13" r="31.42"/>
      <g>
        <path class="cls-13" d="M109.23,238.9c.47-.65.79-1.07,1.17-1.59-.94-.94-1.88-1.81-2.73-2.77-.26-.29-.26-.82-.38-1.24.45.09,1.02.05,1.34.31.81.66,1.51,1.46,2.25,2.2.2-.07.4-.13.6-.2-.18-1.36-.23-2.76-.57-4.08-.43-1.65-1.2-3.21-1.64-4.86-1.49-5.68,2.33-11.41,8.06-12.19,3.1-.43,3.35-.26,4.16,2.97-1.11-.07-2.19-.14-3.27-.21-.08.11-.15.22-.23.33.46.46.98.87,1.35,1.39.26.36.31.87.46,1.32-.45-.11-.96-.11-1.33-.35-.48-.31-.9-.77-1.26-1.23-.82-1.08-1.62-1.04-2.53-.02.81,1.47,2.75,2.23,3.02,4.07l-.43.42c-1.22-1.11-2.44-2.22-3.81-3.46-.35.5-.67.95-1.03,1.46.64.64,1.27,1.15,1.75,1.78.46.61.77,1.34,1.15,2.02-.68-.34-1.39-.63-2.02-1.03-.43-.28-.75-.72-1.12-1.1-.16.04-.32.07-.47.11.12,1.1.12,2.24.4,3.3.45,1.65,1.11,3.24,1.65,4.86,1.23,3.7.23,6.83-2.44,9.54-.73.73-1.46.86-2.23.09-1.29-1.28-2.6-2.55-3.85-3.88-.22-.24-.18-.72-.26-1.09.42.05.97-.04,1.24.19,1,.87,1.9,1.85,3,2.95Z"/>
        <path class="cls-13" d="M119.46,228.13c.55-.4.93-.68,1.56-1.14l-3.29-3.29c1.17-.53,1.16-.52,2.23.53.57.56,1.19,1.06,1.82,1.6,1.16-.82,1.23-1.57.18-2.44-.45-.37-.91-.78-1.22-1.27-.17-.27-.04-.74-.04-1.12.33.06.73.03.98.21.47.34.85.81,1.68,1.15-.1-.94-.09-1.91-.33-2.81-.41-1.55-1.02-3.04-1.46-4.58-.99-3.44-.43-6.56,2.08-9.23.79-.85,1.58-1.05,2.47-.15,1.17,1.18,2.37,2.33,3.5,3.54.22.24.19.71.27,1.08-.41-.05-.95.04-1.22-.18-.92-.8-1.75-1.7-2.73-2.68-.44.59-.77,1.04-1.19,1.6.83.83,1.66,1.58,2.38,2.43.24.29.2.82.28,1.24-.42-.07-.93,0-1.22-.23-.66-.51-1.2-1.16-1.79-1.75-.16.06-.32.11-.49.17.13,1.17.15,2.38.43,3.52.4,1.6,1.07,3.14,1.51,4.73,1.54,5.63-2.02,11.45-7.57,12.47-3.2.59-3.81.18-4.55-3.02,1.32.1,2.65.2,3.99.3.05-.14.1-.27.15-.41-.55-.55-1.16-1.06-1.63-1.67-.22-.3-.17-.8-.24-1.21.37.08.85.05,1.1.27.8.69,1.53,1.49,2.38,2.34Z"/>
        <path class="cls-13" d="M109.47,229.77c-3.01-1.18-5.49-.57-7.72,1.56-.36.34-1.37,0-2.07-.03.05-.67-.17-1.58.19-1.96,1.69-1.8,3.79-2.89,6.32-3.05,1.49-.1,2.65.17,2.84,1.95.05.46.25.91.44,1.54Z"/>
        <path class="cls-13" d="M125.87,216.2c2.78.84,5.24.5,7.41-1.56.32-.3,1.56-.17,1.87.19.31.36.25,1.52-.11,1.89-2.02,2.13-4.62,3.21-7.5,2.6-.83-.18-1.35-1.8-2.02-2.77.11-.12.23-.24.34-.36Z"/>
      </g>
    </g>
    <g>
      <circle class="cls-1" cx="199.34" cy="79.67" r="31.42"/>
      <g>
        <path class="cls-14" d="M225.96,84.12c1.53-.07,2.99-.13,4.44-.2v-4.2h-4.44v4.4Z"/>
        <path class="cls-14" d="M207.97,88.46h4.34v-4.21h-4.34v4.21Z"/>
        <path class="cls-14" d="M198.73,57.19h-4.18v4.26h4.18v-4.26Z"/>
        <path class="cls-14" d="M227.81,93.53c-.77-.32-1.78-.42-3.19-.42-2.51,0-5.03-.02-7.54,0-2.84.03-4.61,1.8-4.63,4.64-.02,2.56,0,5.12,0,7.68,0,1.11.08,1.98.29,2.67,6.54-2.99,11.88-8.16,15.08-14.58Z"/>
        <path class="cls-14" d="M197.8,93.08c-2.58.16-5.18.03-7.92.03v-1.69c0-3.63,0-7.27,0-10.9,0-3.8-1.62-5.41-5.45-5.43-3.73-.02-7.45,0-11.18,0-2.64,0-3.86.38-4.87,1.89-.07.84-.11,1.69-.11,2.55,0,6.71,2.11,12.93,5.7,18.03,3.75,0,7.51,0,11.49,0v2.67c0,1.68,0,3.35,0,5.03,0,.96.05,1.73.18,2.37,4.23,2.12,9,3.32,14.05,3.32.08,0,.16,0,.25,0,2.85-1.26,3.46-2.32,3.47-5.7,0-2.19-.07-4.38.02-6.57.15-3.69-1.94-5.82-5.61-5.59Z"/>
        <path class="cls-14" d="M171.34,65.97c.53.07,1.14.1,1.85.1,2.47,0,4.94.02,7.41,0,3.03-.04,4.76-1.78,4.78-4.79.02-2.52,0-5.03,0-7.55,0-.82-.04-1.5-.15-2.09-6.04,3.14-10.94,8.18-13.89,14.33Z"/>
        <path class="cls-14" d="M224.63,70.56c2.47,0,3.72-.33,4.64-1.61-3.3-9.21-10.77-16.44-20.14-19.38-.91.88-1.19,2.09-1.19,4.16,0,3.12,0,6.25,0,9.37v3.05c-1.67,0-3.16-.05-4.64.01-2.54.11-4.26,1.88-4.31,4.39-.04,1.58-.05,3.17,0,4.75.08,2.37,1.83,4.11,4.2,4.2,1.4.05,2.8.02,4.2.01,3.27-.02,4.95-1.71,4.98-5.02,0-1.28,0-2.56,0-3.94,4.26,0,8.26,0,12.27,0Z"/>
      </g>
    </g>
  </g>
</svg>