<?xml version="1.0" encoding="UTF-8"?>
<svg id="Layer_2" data-name="Layer 2" xmlns="http://www.w3.org/2000/svg" version="1.1" viewBox="0 0 1015.1 266.8">
  <defs>
    <style>
      .cls-1 {
        fill: #99aa8f;
      }

      .cls-1, .cls-2, .cls-3, .cls-4, .cls-5, .cls-6, .cls-7, .cls-8, .cls-9, .cls-10, .cls-11, .cls-12, .cls-13, .cls-14, .cls-15, .cls-16 {
        stroke: #231f20;
      }

      .cls-1, .cls-2, .cls-3, .cls-4, .cls-5, .cls-6, .cls-7, .cls-8, .cls-10, .cls-17, .cls-11, .cls-12, .cls-13, .cls-14, .cls-15, .cls-16, .cls-18 {
        stroke-miterlimit: 10;
      }

      .cls-2 {
        fill: #2f9297;
      }

      .cls-3, .cls-6, .cls-17, .cls-18 {
        fill: none;
      }

      .cls-3, .cls-17, .cls-18 {
        stroke-width: 5px;
      }

      .cls-4 {
        fill: #5dbd75;
      }

      .cls-5 {
        fill: #80a0b0;
      }

      .cls-7 {
        fill: #c7d1c1;
      }

      .cls-8 {
        fill: #a7d38c;
      }

      .cls-9 {
        fill: #95bc9d;
        stroke-miterlimit: 10;
        stroke-width: 1px;
      }

      .cls-19, .cls-14 {
        fill: #000;
      }

      .cls-19, .cls-20 {
        stroke-width: 0px;
      }

      .cls-10 {
        fill: #599696;
      }

      .cls-17 {
        stroke: #bcbec0;
      }

      .cls-11 {
        fill: #90a6af;
      }

      .cls-12 {
        fill: #4db488;
      }

      .cls-21 {
        opacity: .5;
      }

      .cls-22 {
        opacity: .9;
      }

      .cls-23 {
        opacity: .7;
      }

      .cls-13, .cls-15 {
        fill: #8dac7d;
      }

      .cls-14, .cls-15 {
        stroke-width: 2px;
      }

      .cls-16 {
        fill: #bfd8cc;
      }

      .cls-18 {
        stroke: #58595b;
      }

      .cls-20 {
        fill: #231f20;
      }
    </style>
  </defs>
  <g>
    <circle class="cls-3" cx="509.4" cy="133.4" r="104.5"/>
    <circle class="cls-17" cx="509.4" cy="133.4" r="86.4"/>
    <circle class="cls-18" cx="509.4" cy="133.4" r="95.6"/>
    <g>
      <circle class="cls-4" cx="423.8" cy="180.1" r="31.4"/>
      <path class="cls-19" d="M423.4,170.2c2,0,3.9.5,5.7,1.3,2.4,1.1,4.5,2.6,6.4,4.4,1.2,1.1,2.3,2.3,3.3,3.7.3.5.3.8,0,1.2-1,1.3-2.2,2.6-3.4,3.7-1.1.9-2.1,1.8-3.3,2.6-1.6,1.1-3.3,1.9-5.1,2.5-1.6.5-3.2.6-4.9.4-1.4-.1-2.8-.5-4.1-1.1-1.9-.8-3.6-1.9-5.3-3.3-1.7-1.4-3.3-3-4.7-4.7-.5-.6-.5-.9,0-1.5,2.2-2.8,4.8-5.1,7.8-6.9,3-1.8,3.1-1.6,4.8-1.9.9-.2,1.8-.3,2.8-.4h0ZM423.3,188.3h.8c1.8,0,3.5-.7,5.1-1.5,3-1.6,5.5-3.9,7.7-6.4v-.4c-.2-.2-.5-.5-.7-.8-1.7-1.9-3.6-3.6-5.7-4.9-1.7-1-3.4-1.8-5.4-2.2-1.4-.2-2.7-.2-4,.1-1.9.4-3.7,1.3-5.3,2.4-2.2,1.5-4.2,3.3-6,5.4v.4c.5.5.9,1,1.4,1.5,2,2.1,4.2,3.8,6.8,5.1,1.7.8,3.5,1.3,5.4,1.4h0Z"/>
      <g>
        <path class="cls-19" d="M423.9,170.2c2,0,3.9.5,5.7,1.3,2.4,1.1,4.5,2.6,6.4,4.4,1.2,1.1,2.3,2.3,3.3,3.7.3.5.3.8,0,1.2-1,1.3-2.2,2.6-3.4,3.7-1.1.9-2.1,1.8-3.3,2.6-1.6,1.1-3.3,1.9-5.1,2.5-1.6.5-3.2.6-4.9.4-1.4-.1-2.8-.5-4.1-1.1-1.9-.8-3.6-1.9-5.3-3.3-1.7-1.4-3.3-3-4.7-4.7-.5-.6-.5-.9,0-1.5,2.2-2.8,4.8-5.1,7.8-6.9,3-1.8,3.1-1.6,4.8-1.9.9-.2,1.8-.3,2.8-.4h0ZM423.8,188.3h.8c1.8,0,3.5-.7,5.1-1.5,3-1.6,5.5-3.9,7.7-6.4v-.4c-.2-.2-.5-.5-.7-.8-1.7-1.9-3.6-3.6-5.7-4.9-1.7-1-3.4-1.8-5.4-2.2-1.3-.2-2.7-.2-4,.1-1.9.4-3.7,1.3-5.3,2.4-2.2,1.5-4.2,3.3-6,5.4v.4c.5.5.9,1,1.4,1.5,2,2.1,4.2,3.8,6.8,5.1,1.7.8,3.5,1.3,5.4,1.4h0Z"/>
        <path class="cls-19" d="M419.9,189.1c-2.8,0-5.2-2.2-5.1-4.8,0-2.7,2.3-4.8,5.1-4.8s4.9,2.1,4.9,4.8-2.2,4.8-4.9,4.8h0ZM421.6,184.3c0-1-.7-1.7-1.7-1.7s-1.9.8-1.9,1.7,1,1.7,2,1.7,1.6-.8,1.6-1.7Z"/>
      </g>
    </g>
    <g>
      <circle class="cls-2" cx="509.4" cy="37.8" r="31.4"/>
      <g>
        <path class="cls-19" d="M494.4,44.9h2v5.9h5.9v2.1h-7.9v-8Z"/>
        <path class="cls-19" d="M524.5,44.9v8h-8v-2.1h5.9v-5.9h2.1Z"/>
        <path class="cls-19" d="M496.4,30.7h-2.1v-8h8v2.1h-5.9v5.9h0Z"/>
        <path class="cls-19" d="M522.4,30.7v-5.8h-5.9v-2.1h8v7.9h-2.1Z"/>
        <g>
          <path class="cls-19" d="M510.8,26.7c.8.1,1.5.2,2.3.4,4.7,1.3,7.8,5.7,7.4,10.6-.4,4.8-4,8.7-8.7,9.3h-2.2c-4.1-.3-7.8-3.3-8.9-7.3-.2-.8-.3-1.6-.5-2.4v-1.4c.4-4.3,3.3-7.8,7.5-8.9.7-.2,1.4-.3,2.2-.4h.9ZM510.3,46.5c5.2,0,9.5-4.3,9.5-9.5s-4.3-9.6-9.5-9.5c-5.2,0-9.4,4.3-9.5,9.5,0,5.3,4.3,9.6,9.5,9.5Z"/>
          <path class="cls-19" d="M501.7,36.9c0-4.8,3.9-8.6,8.7-8.6s8.6,4,8.6,8.7-3.9,8.7-8.7,8.7-8.6-4-8.6-8.7h0ZM510.3,45c4.4,0,8-3.6,8-8s-3.6-8-7.9-8-8,3.6-8,8,3.6,8,7.9,8h0Z"/>
          <path class="cls-19" d="M508.4,34.3c-.2.2-.3.3-.5.4,0,0-.3-.3-.3-.4s.2-.3.3-.4c0,0,.2.2.4.4h.1Z"/>
          <path class="cls-19" d="M509,31.8c.2.3.4.4.3.5,0,.2-.2.3-.4.5,0,0-.3-.3-.3-.4s0-.3.3-.6h.1Z"/>
          <path class="cls-19" d="M505.5,33.3c-.2-.3-.3-.4-.3-.5,0-.2.2-.3.3-.4,0,0,.3.2.3.4s-.2.3-.3.6h0Z"/>
          <path class="cls-19" d="M508.3,38.7c-.2.2-.3.4-.5.4,0,0-.3-.2-.3-.3,0-.2.2-.3.3-.5,0,0,.2.2.5.3h0Z"/>
          <path class="cls-19" d="M506.4,42c-.2-.3-.3-.5-.3-.6,0-.2.2-.3.3-.4,0,0,.3.2.3.4s-.2.3-.3.6Z"/>
          <path class="cls-19" d="M508.7,43c-.2-.3-.3-.4-.3-.5,0-.2.2-.3.3-.4,0,0,.3.3.3.4s-.2.3-.3.5h0Z"/>
          <path class="cls-19" d="M505.4,38.9c-.2.2-.3.3-.5.4,0,0-.3-.2-.3-.3,0-.2.2-.3.3-.4,0,0,.2.2.5.4h0Z"/>
          <circle class="cls-6" cx="514.7" cy="37.4" r="2.1"/>
        </g>
      </g>
    </g>
    <g>
      <circle class="cls-12" cx="426.1" cy="85.6" r="31.4"/>
      <g>
        <path class="cls-20" d="M439.8,88c-.3,0-.6-.2-.9-.2-1-.3-2.1-.2-3.1,0-1.4-3.4-2.8-6.8-4.3-10.3.7-.5,1.2-1.2,1.5-2.1v-1.2c-.3-1.3-1.3-2.2-2.5-2.3-1.6,0-2.7.6-3.2,2,0,.2,0,.4-.2.6v.7c.4,1.3,1.1,2.3,2.6,2.5h1.2c0,.2.2.3.3.4,1.4,3.3,2.7,6.5,4.1,9.8-1.1.4-2.1.9-3,1.7-.3.3-.5.2-.8,0-1.1-1-2.3-2-3.5-3h0c0-.5.2-.9,0-1.4-.2-.8-.9-1.5-1.4-1.4s-.9,0-1.3,0c-1.1-1.4-2.1-2.9-3.2-4.3.5-1.4.8-2.8.8-4.2h4.2v-.7h-4.4c-1.4-4.8-4.5-6.2-8.8-5.9-3.8.2-7,4.8-6.2,8.7.7,3.4,2.8,5.5,6.2,6.3h.8c1,0,1.9,0,2.9-.2.2,0,.5-.2.7-.3,1.4-.7,2.4-1.7,3.4-2.8,1,1.3,2,2.7,2.9,4-.3.6-.6,1.2-.4,1.9.4,1.3,1.7,1.8,3.2,1,1.1,1,2.3,2,3.4,3,.4.3.4.5,0,.9-.3.4-.5.9-.8,1.4-2.4,0-4.8-.2-7.1-.4v.8l7,.4c-.4,1.3-.3,2.7,0,4,0,.3.2.5.3.8,1.3,2.8,3.5,4.5,6.6,4.7,3.2.2,5.7-1.2,7.2-4.1,2-3.8.5-8.9-4.1-10.7h-.2.1,0Z"/>
        <path class="cls-20" d="M419.5,89.2h-.2c-.1,0,0-.3-.1-.4-.4-1.9-.7-3.9-1.1-5.8-.2,0-.5.2-.7.3.4,2.1.8,4.2,1.1,6.2-.2.2-.4.3-.6.4-.9.8-1.2,2.2-.7,3.3.5,1.2,1.6,1.9,2.9,1.8,1.5,0,2.2-1,2.8-2.3v-.8c-.1-1.7-1.6-3.1-3.3-2.8h0Z"/>
      </g>
    </g>
    <g>
      <circle class="cls-13" cx="588.5" cy="180.1" r="31.4"/>
      <g>
        <polygon class="cls-15" points="593.3 188.8 569.5 188.8 583.8 182.8 607.6 182.8 593.3 188.8"/>
        <polygon class="cls-14" points="593.3 184.6 569.5 184.6 583.8 179 607.6 179 593.3 184.6"/>
        <polygon class="cls-15" points="593.3 180.8 569.5 180.8 583.8 175.2 607.6 175.2 593.3 180.8"/>
        <polygon class="cls-14" points="593.3 177 569.5 177 583.8 171.4 607.6 171.4 593.3 177"/>
      </g>
    </g>
    <g>
      <circle class="cls-5" cx="509.4" cy="229" r="31.4"/>
      <g>
        <path class="cls-19" d="M501.1,244.8c.5-.6.8-1.1,1.2-1.6-.9-.9-1.9-1.8-2.7-2.8-.3-.3-.3-.8-.4-1.2.4,0,1,0,1.3.3.8.7,1.5,1.5,2.2,2.2.2,0,.4-.1.6-.2-.2-1.4-.2-2.8-.6-4.1-.4-1.6-1.2-3.2-1.6-4.9-1.5-5.7,2.3-11.4,8.1-12.2,3.1-.4,3.3-.3,4.2,3-1.1,0-2.2-.1-3.3-.2,0,.1-.2.2-.2.3.5.5,1,.9,1.3,1.4.3.4.3.9.5,1.3-.4-.1-1-.1-1.3-.4-.5-.3-.9-.8-1.3-1.2-.8-1.1-1.6-1-2.5,0,.8,1.5,2.8,2.2,3,4.1l-.4.4c-1.2-1.1-2.4-2.2-3.8-3.5-.3.5-.7.9-1,1.5.6.6,1.3,1.1,1.8,1.8.5.6.8,1.3,1.2,2-.7-.3-1.4-.6-2-1-.4-.3-.8-.7-1.1-1.1-.2,0-.3,0-.5.1,0,1.1,0,2.2.4,3.3.4,1.6,1.1,3.2,1.7,4.9,1.2,3.7.2,6.8-2.4,9.5-.7.7-1.5.9-2.2,0-1.3-1.3-2.6-2.6-3.8-3.9-.2-.2-.2-.7-.3-1.1.4,0,1,0,1.2.2,1,.9,1.9,1.9,3,2.9h0l-.3.2h0Z"/>
        <path class="cls-19" d="M511.4,234c.6-.4.9-.7,1.6-1.1l-3.3-3.3c.8-.3,1.5-.2,2.2.5.6.6,1.2,1.1,1.8,1.6,1.2-.8,1.2-1.6.2-2.4-.4-.4-.9-.8-1.2-1.3-.2-.3,0-.7,0-1.1.3,0,.7,0,1,.2.5.3.8.8,1.7,1.1,0-.9,0-1.9-.3-2.8-.4-1.6-1-3-1.5-4.6-1-3.4-.4-6.6,2.1-9.2.8-.9,1.6-1.1,2.5-.1,1.2,1.2,2.4,2.3,3.5,3.5.2.2.2.7.3,1.1-.4,0-.9,0-1.2-.2-.9-.8-1.8-1.7-2.7-2.7-.4.6-.8,1-1.2,1.6.8.8,1.7,1.6,2.4,2.4.2.3.2.8.3,1.2-.4,0-.9,0-1.2-.2-.7-.5-1.2-1.2-1.8-1.8-.2,0-.3.1-.5.2,0,1.2.2,2.4.4,3.5.4,1.6,1.1,3.1,1.5,4.7,1.5,5.6-2,11.4-7.6,12.5-3.2.6-3.8.2-4.6-3,1.3.1,2.7.2,4,.3,0-.1,0-.3.2-.4-.6-.6-1.2-1.1-1.6-1.7-.2-.3-.2-.8-.2-1.2.4,0,.8,0,1.1.3.8.7,1.5,1.5,2.4,2.3h-.3,0Z"/>
        <path class="cls-19" d="M501.4,235.7c-3-1.2-5.5-.6-7.7,1.6-.4.3-1.4,0-2.1,0,0-.7-.2-1.6.2-2,1.7-1.8,3.8-2.9,6.3-3.1,1.5-.1,2.7.2,2.8,1.9,0,.5.2.9.4,1.5h.1Z"/>
        <path class="cls-19" d="M517.8,222.1c2.8.8,5.2.5,7.4-1.6.3-.3,1.6-.2,1.9.2s.2,1.5,0,1.9c-2,2.1-4.6,3.2-7.5,2.6-.8-.2-1.3-1.8-2-2.8,0-.1.2-.2.3-.4h0Z"/>
      </g>
    </g>
    <g>
      <circle class="cls-8" cx="591.2" cy="85.6" r="31.4"/>
      <g>
        <path class="cls-20" d="M618,90c1.5,0,3,0,4.4-.2v-4.2h-4.4s0,4.4,0,4.4Z"/>
        <path class="cls-20" d="M600,94.4h4.3v-4.2h-4.3v4.2Z"/>
        <path class="cls-20" d="M590.6,63.1h-4.2v4.3h4.2v-4.3Z"/>
        <path class="cls-20" d="M619.7,99.4c-.8-.3-1.8-.4-3.2-.4h-7.5c-2.8,0-4.6,1.8-4.6,4.6v7.7c0,2.6,0,2,.3,2.7,6.5-3,11.9-8.2,15.1-14.6h-.1,0Z"/>
        <path class="cls-20" d="M589.7,99c-2.6.2-5.2,0-7.9,0v-12.6c0-3.8-1.6-5.4-5.4-5.4h-11.2c-3.8,0-3.9.4-4.9,1.9,0,.8-.1,1.7-.1,2.6,0,6.7,2.1,12.9,5.7,18h11.5v7.7c0,1,0,1.7.2,2.4,4.2,2.1,9,3.3,14.1,3.3h.2c2.9-1.3,3.5-2.3,3.5-5.7v-6.6c.1-3.7-1.9-5.8-5.6-5.6h-.1Z"/>
        <path class="cls-20" d="M563.2,71.9h9.3c3,0,4.8-1.8,4.8-4.8v-7.5c0-2.5,0-1.5-.1-2.1-6,3.1-10.9,8.2-13.9,14.3h-.1,0Z"/>
        <path class="cls-20" d="M616.5,76.5c2.5,0,3.7-.3,4.6-1.6-3.3-9.2-10.8-16.4-20.1-19.4-.9.9-1.2,2.1-1.2,4.2v12.4h-4.6c-2.5,0-4.3,1.9-4.3,4.4v4.8c0,2.4,1.8,4.1,4.2,4.2h4.2c3.3,0,4.9-1.7,5-5v-3.9h12.3-.1Z"/>
      </g>
    </g>
  </g>
  <g class="cls-22">
    <circle class="cls-10" cx="679.8" cy="133.4" r="41.4" transform="translate(430.5 779.7) rotate(-80)"/>
    <g>
      <path class="cls-19" d="M660,142.8h2.6v7.8h7.8v2.8h-10.4v-10.6h0Z"/>
      <path class="cls-19" d="M699.6,142.8v10.6h-10.6v-2.8h7.8v-7.8h2.8Z"/>
      <path class="cls-19" d="M662.7,124h-2.8v-10.6h10.6v2.8h-7.8v7.8h0Z"/>
      <path class="cls-19" d="M697,124v-7.7h-7.8v-2.8h10.6v10.4h-2.8Z"/>
      <g>
        <path class="cls-19" d="M681.6,118.8c1.1,0,2,.3,3,.5,6.2,1.7,10.3,7.5,9.8,14-.5,6.3-5.3,11.5-11.5,12.3-.4,0-.9,0-1.3.1h-1.6c-5.4-.4-10.3-4.4-11.7-9.6-.3-1.1-.4-2.1-.7-3.2v-1.8c.5-5.7,4.4-10.3,9.9-11.7.9-.3,1.8-.4,2.9-.5h1.2,0ZM681.1,144.9c6.9,0,12.5-5.7,12.5-12.5s-5.7-12.7-12.5-12.5c-6.9,0-12.4,5.7-12.5,12.5,0,7,5.7,12.7,12.5,12.5Z"/>
        <path class="cls-19" d="M669.7,132.2c0-6.3,5.1-11.4,11.5-11.4s11.4,5.3,11.4,11.5-5.1,11.5-11.5,11.5-11.4-5.3-11.4-11.5h0ZM681.1,142.9c5.8,0,10.6-4.8,10.6-10.6s-4.8-10.6-10.4-10.6-10.6,4.8-10.6,10.6,4.8,10.6,10.4,10.6h0Z"/>
        <path class="cls-19" d="M678.5,128.8c-.3.3-.4.4-.7.5,0,0-.4-.4-.4-.5s.3-.4.4-.5c0,0,.3.3.5.5h.2Z"/>
        <path class="cls-19" d="M679.2,125.5c.3.4.5.5.4.7,0,.3-.3.4-.5.7,0,0-.4-.4-.4-.5s0-.4.4-.8h0Z"/>
        <path class="cls-19" d="M674.7,127.5c-.3-.4-.4-.5-.4-.7,0-.3.3-.4.4-.5,0,0,.4.3.4.5s-.3.4-.4.8h0Z"/>
        <path class="cls-19" d="M678.2,134.6c-.3.3-.4.5-.7.5,0,0-.4-.3-.4-.4,0-.3.3-.4.4-.7,0,0,.3.3.7.4h0v.2Z"/>
        <path class="cls-19" d="M676,139c-.3-.4-.4-.7-.4-.8,0-.3.3-.4.4-.5,0,0,.4.3.4.5s-.3.4-.4.8Z"/>
        <path class="cls-19" d="M679,140.3c-.3-.4-.4-.5-.4-.7,0-.3.3-.4.4-.5,0,.1.4.4.4.5s-.3.4-.4.7h0Z"/>
        <path class="cls-19" d="M674.6,134.9c-.3.3-.4.4-.7.5,0,0-.4-.3-.4-.4,0-.3.3-.4.4-.5,0,0,.3.3.7.5h0Z"/>
        <circle class="cls-6" cx="686.8" cy="132.9" r="2.8"/>
      </g>
    </g>
  </g>
  <g class="cls-21">
    <circle class="cls-7" cx="843.1" cy="133.4" r="20.9"/>
    <g>
      <path class="cls-20" d="M860.8,136.4h2.9v-2.8h-2.9v2.9h0Z"/>
      <path class="cls-20" d="M848.8,139.3h2.9v-2.8h-2.9v2.8Z"/>
      <path class="cls-20" d="M842.6,118.5h-2.8v2.9h2.8v-2.9Z"/>
      <path class="cls-20" d="M862.1,142.7c-.5-.2-1.2-.3-2.1-.3h-5c-1.9,0-3.1,1.2-3.1,3.1v5.1c0,1.7,0,1.3.2,1.8,4.3-2,7.9-5.5,10.1-9.7h-.1Z"/>
      <path class="cls-20" d="M842.1,142.4c-1.7.1-3.5,0-5.3,0v-8.4c0-2.5-1.1-3.6-3.6-3.6h-7.5c-2.5,0-2.6.3-3.3,1.3v1.7c0,4.5,1.4,8.6,3.8,12h7.7v5.1c0,.7,0,1.1,0,1.6,2.8,1.4,6,2.2,9.4,2.2h0c1.9-.9,2.3-1.5,2.3-3.8v-4.4c0-2.5-1.3-3.9-3.7-3.7h0Z"/>
      <path class="cls-20" d="M824.5,124.3h6.2c2,0,3.2-1.2,3.2-3.2v-5c0-1.7,0-1,0-1.4-4,2.1-7.3,5.5-9.3,9.5h-.1Z"/>
      <path class="cls-20" d="M860,127.4c1.7,0,2.5-.2,3.1-1.1-2.2-6.1-7.2-10.9-13.4-12.9-.6.6-.8,1.4-.8,2.8v8.3h-3.1c-1.7,0-2.9,1.3-2.9,2.9v3.2c0,1.6,1.2,2.7,2.8,2.8h2.8c2.2,0,3.3-1.1,3.3-3.3v-2.6h8.2Z"/>
    </g>
  </g>
  <g class="cls-23">
    <circle class="cls-1" cx="771.7" cy="133.4" r="34.6"/>
    <g>
      <polygon class="cls-15" points="777.1 143 750.7 143 766.6 136.5 792.8 136.5 777.1 143"/>
      <polygon class="cls-14" points="777.1 138.3 750.7 138.3 766.6 132.2 792.8 132.2 777.1 138.3"/>
      <polygon class="cls-15" points="777.1 134.1 750.7 134.1 766.6 128 792.8 128 777.1 134.1"/>
      <polygon class="cls-14" points="777.1 129.9 750.7 129.9 766.6 123.8 792.8 123.8 777.1 129.9"/>
    </g>
  </g>
  <g class="cls-22">
    <circle class="cls-11" cx="335.2" cy="133.4" r="41.4"/>
    <g>
      <path class="cls-19" d="M324.4,154.3c.7-.8,1.1-1.5,1.6-2.1-1.2-1.2-2.5-2.4-3.6-3.7-.4-.4-.4-1.1-.5-1.6.5,0,1.3,0,1.7.4,1.1.9,2,2,2.9,2.9.3,0,.5-.1.8-.3-.3-1.8-.3-3.7-.8-5.4-.5-2.1-1.6-4.2-2.1-6.5-2-7.5,3-15,10.7-16.1,4.1-.5,4.4-.4,5.5,4-1.5,0-2.9,0-4.4-.3,0,0-.3.3-.3.4.7.7,1.3,1.2,1.7,1.8.4.5.4,1.2.7,1.7-.5,0-1.3,0-1.7-.5-.7-.4-1.2-1.1-1.7-1.6-1.1-1.5-2.1-1.3-3.3,0,1.1,2,3.7,2.9,4,5.4l-.5.5c-1.6-1.5-3.2-2.9-5-4.6-.4.7-.9,1.2-1.3,2,.8.8,1.7,1.5,2.4,2.4.7.8,1.1,1.7,1.6,2.6-.9-.4-1.8-.8-2.6-1.3-.5-.4-1.1-.9-1.5-1.5h-.7c0,1.5,0,2.9.5,4.4.5,2.1,1.5,4.2,2.2,6.5,1.6,4.9.3,9-3.2,12.5s-2,1.2-2.9,0c-1.7-1.7-3.4-3.4-5-5.1-.3-.3-.3-.9-.4-1.5.5,0,1.3,0,1.6.3,1.3,1.2,2.5,2.5,4,3.8h0l-.4.3h0v.2h0Z"/>
      <path class="cls-19" d="M337.8,140c.8-.5,1.2-.9,2.1-1.5l-4.4-4.4c1.1-.5,2-.2,2.9.7s1.6,1.5,2.4,2.1c1.6-1.1,1.6-2.1.3-3.2-.5-.5-1.2-1.1-1.6-1.7-.3-.4,0-.9,0-1.5.4,0,.9,0,1.3.3.7.4,1.1,1.1,2.2,1.5,0-1.2,0-2.5-.4-3.7-.5-2.1-1.3-4-2-6.1-1.3-4.5-.5-8.7,2.8-12.1,1.1-1.2,2.1-1.5,3.3,0,1.6,1.6,3.2,3,4.6,4.6.3.3.3.9.4,1.5-.5,0-1.2,0-1.6-.3-1.2-1.1-2.4-2.2-3.6-3.6-.5.8-1.1,1.3-1.6,2.1,1.1,1.1,2.2,2.1,3.2,3.2.3.4.3,1.1.4,1.6-.5,0-1.2,0-1.6-.3-.9-.7-1.6-1.6-2.4-2.4-.3,0-.4,0-.7.3,0,1.6.3,3.2.5,4.6.5,2.1,1.5,4.1,2,6.2,2,7.4-2.6,15-10,16.5-4.2.8-5,.3-6.1-4,1.7,0,3.6.3,5.3.4,0,0,0-.4.3-.5-.8-.8-1.6-1.5-2.1-2.2-.3-.4-.3-1.1-.3-1.6.5,0,1.1,0,1.5.4,1.1.9,2,2,3.2,3h-.4v.2h.1Z"/>
      <path class="cls-19" d="M324.7,142.1c-4-1.6-7.3-.8-10.2,2.1-.5.4-1.8,0-2.8,0,0-.9-.3-2.1.3-2.6,2.2-2.4,5-3.8,8.3-4.1,2,0,3.6.3,3.7,2.5,0,.7.3,1.2.5,2h.2Z"/>
      <path class="cls-19" d="M346.3,124.3c3.7,1.1,6.9.7,9.8-2.1.4-.4,2.1-.3,2.5.3s.3,2,0,2.5c-2.6,2.8-6.1,4.2-9.9,3.4-1.1-.3-1.7-2.4-2.6-3.7,0,0,.3-.3.4-.5h-.2Z"/>
    </g>
  </g>
  <g class="cls-23">
    <circle class="cls-9" cx="243.3" cy="133.4" r="34.6" transform="translate(-18.3 40.9) rotate(-9.3)"/>
    <path class="cls-19" d="M242.7,122.5c2.2,0,4.3.6,6.3,1.4,2.6,1.2,5,2.9,7.1,4.9,1.3,1.2,2.5,2.5,3.6,4.1.3.6.3.9,0,1.3-1.1,1.4-2.4,2.9-3.8,4.1-1.2,1-2.3,2-3.6,2.9-1.8,1.2-3.6,2.1-5.6,2.8-1.8.6-3.5.7-5.4.4-1.5-.1-3.1-.6-4.5-1.2-2.1-.9-4-2.1-5.8-3.6-1.9-1.5-3.6-3.3-5.2-5.2-.6-.7-.6-1,0-1.7,2.4-3.1,5.3-5.6,8.6-7.6s3.4-1.8,5.3-2.1c1-.2,2-.3,3.1-.4h0ZM242.7,142.5h.9c2,0,3.9-.8,5.6-1.7,3.3-1.8,6.1-4.3,8.5-7.1,0,0,0-.2,0-.4-.2-.2-.6-.6-.8-.9-1.9-2.1-4-4-6.3-5.4-1.9-1.1-3.8-2-6-2.4-1.5-.2-3-.2-4.4,0-2.1.4-4.1,1.4-5.8,2.6-2.4,1.7-4.6,3.6-6.6,6,0,0,0,.2,0,.4.6.6,1,1.1,1.5,1.7,2.2,2.3,4.6,4.2,7.5,5.6,1.9.9,3.9,1.4,6,1.5h0,0Z"/>
    <g>
      <path class="cls-19" d="M243.3,122.5c2.2,0,4.3.6,6.3,1.4,2.6,1.2,5,2.9,7.1,4.9,1.3,1.2,2.5,2.5,3.6,4.1.3.6.3.9,0,1.3-1.1,1.4-2.4,2.9-3.8,4.1-1.2,1-2.3,2-3.6,2.9-1.8,1.2-3.6,2.1-5.6,2.8-1.8.6-3.5.7-5.4.4-1.5-.1-3.1-.6-4.5-1.2-2.1-.9-4-2.1-5.8-3.6-1.9-1.5-3.6-3.3-5.2-5.2-.6-.7-.6-1,0-1.7,2.4-3.1,5.3-5.6,8.6-7.6s3.4-1.8,5.3-2.1c1-.2,2-.3,3.1-.4h0ZM243.3,142.5h.9c2,0,3.9-.8,5.6-1.7,3.3-1.8,6.1-4.3,8.5-7.1,0,0,0-.2,0-.4-.2-.2-.6-.6-.8-.9-1.9-2.1-4-4-6.3-5.4-1.9-1.1-3.8-2-6-2.4-1.4-.2-3-.2-4.4,0-2.1.4-4.1,1.4-5.8,2.6-2.4,1.7-4.6,3.6-6.6,6,0,0,0,.2,0,.4.6.6,1,1.1,1.5,1.7,2.2,2.3,4.6,4.2,7.5,5.6,1.9.9,3.9,1.4,6,1.5h0,0Z"/>
      <path class="cls-19" d="M239,143.2c-3.1,0-5.7-2.4-5.6-5.3,0-3,2.5-5.3,5.6-5.3s5.4,2.3,5.4,5.3-2.4,5.3-5.4,5.3h0ZM240.7,137.9c0-1.1-.8-1.9-1.9-1.9s-2.1.9-2.1,1.9,1.1,1.9,2.2,1.9,1.8-.9,1.8-1.9Z"/>
    </g>
  </g>
  <g class="cls-21">
    <circle class="cls-16" cx="172" cy="133.4" r="20.9"/>
    <g>
      <path class="cls-20" d="M181.2,135h-.6c-.7-.2-1.4,0-2.1,0-.9-2.3-1.9-4.5-2.9-6.9.5-.3.8-.8,1-1.4v-.8c-.2-.9-.9-1.5-1.7-1.5s-1.8.4-2.1,1.3c0,0,0,.3,0,.4v.5c.3.9.7,1.5,1.7,1.7h.8s0,.2.2.3c.9,2.2,1.8,4.3,2.7,6.5-.7.3-1.4.6-2,1.1-.2.2-.3,0-.5,0-.7-.7-1.5-1.3-2.3-2h0c0-.3,0-.6,0-.9,0-.5-.6-1-.9-.9s-.6,0-.9,0c-.7-.9-1.4-1.9-2.1-2.9.3-.9.5-1.9.5-2.8h2.8v-.5h-2.9c-.9-3.2-3-4.1-5.9-3.9-2.5,0-4.7,3.2-4.1,5.8.5,2.3,1.9,3.7,4.1,4.2h2.4c.1,0,.3,0,.5-.2.9-.5,1.6-1.1,2.3-1.9.7.9,1.3,1.8,1.9,2.7-.2.4-.4.8-.3,1.3.3.9,1.1,1.2,2.1.7.7.7,1.5,1.3,2.3,2,.3.2.3.3,0,.6-.2.3-.3.6-.5.9-1.6,0-3.2-.1-4.7-.3v.5l4.7.3c-.3.9-.2,1.8,0,2.7,0,.2,0,.3.2.5.9,1.9,2.3,3,4.4,3.1,2.1.1,3.8-.8,4.8-2.7,1.3-2.5.3-5.9-2.7-7.1h0v-.2h0v-.2h0Z"/>
      <path class="cls-20" d="M167.7,135.9h-.1v-.3c-.3-1.3-.5-2.6-.7-3.9-.1,0-.3,0-.5.2.3,1.4.5,2.8.7,4.1-.1,0-.3.2-.4.3-.6.5-.8,1.5-.5,2.2.3.8,1.1,1.3,1.9,1.2,1,0,1.5-.7,1.9-1.5v-.5c0-1.1-1.1-2.1-2.2-1.9h0Z"/>
    </g>
  </g>
</svg>