<?xml version="1.0" encoding="UTF-8"?>
<svg id="Layer_2" data-name="Layer 2" xmlns="http://www.w3.org/2000/svg" version="1.1" viewBox="0 0 1965.1 523.2">
  <defs>
    <style>
      .cls-1 {
        fill: #99aa8f;
      }

      .cls-1, .cls-2, .cls-3, .cls-4, .cls-5, .cls-6, .cls-7, .cls-8, .cls-9, .cls-10, .cls-11, .cls-12, .cls-13, .cls-14, .cls-15, .cls-16 {
        stroke: #231f20;
      }

      .cls-1, .cls-2, .cls-3, .cls-4, .cls-5, .cls-6, .cls-7, .cls-8, .cls-17, .cls-10, .cls-11, .cls-12, .cls-13, .cls-14, .cls-15, .cls-16, .cls-18 {
        stroke-miterlimit: 10;
      }

      .cls-2 {
        fill: #2f9297;
      }

      .cls-3, .cls-6, .cls-17, .cls-18 {
        fill: none;
      }

      .cls-3, .cls-17, .cls-18 {
        stroke-width: 5px;
      }

      .cls-4 {
        fill: #5dbd75;
      }

      .cls-5 {
        fill: #80a0b0;
      }

      .cls-7 {
        fill: #c7d1c1;
      }

      .cls-8 {
        fill: #a7d38c;
      }

      .cls-9 {
        fill: #599696;
        stroke-miterlimit: 10;
        stroke-width: 1px;
      }

      .cls-19, .cls-13 {
        fill: #000;
      }

      .cls-19, .cls-20 {
        stroke-width: 0px;
      }

      .cls-17 {
        stroke: #bcbec0;
      }

      .cls-10 {
        fill: #90a6af;
      }

      .cls-11 {
        fill: #4db488;
      }

      .cls-21 {
        opacity: .5;
      }

      .cls-22 {
        opacity: .9;
      }

      .cls-23 {
        opacity: .7;
      }

      .cls-12, .cls-14 {
        fill: #8dac7d;
      }

      .cls-13, .cls-14 {
        stroke-width: 2px;
      }

      .cls-15 {
        fill: #95bc9d;
      }

      .cls-16 {
        fill: #bfd8cc;
      }

      .cls-18 {
        stroke: #58595b;
      }

      .cls-20 {
        fill: #231f20;
      }
    </style>
  </defs>
  <g>
    <circle class="cls-3" cx="984" cy="261.6" r="80.3"/>
    <circle class="cls-17" cx="984" cy="261.6" r="66.4"/>
    <circle class="cls-18" cx="984" cy="261.6" r="73.5"/>
    <g>
      <circle class="cls-4" cx="918.2" cy="297.5" r="24.1"/>
      <path class="cls-19" d="M917.9,289.9c1.5,0,3,.4,4.4,1,1.8.8,3.5,2,4.9,3.4.9.8,1.8,1.8,2.5,2.8.2.4.2.6,0,.9-.8,1-1.7,2-2.6,2.8-.8.7-1.6,1.4-2.5,2-1.2.8-2.5,1.5-3.9,1.9-1.2.4-2.5.5-3.8.3-1.1,0-2.2-.4-3.2-.8-1.5-.6-2.8-1.5-4.1-2.5s-2.5-2.3-3.6-3.6c-.4-.5-.4-.7,0-1.2,1.7-2.2,3.7-3.9,6-5.3s2.4-1.2,3.7-1.5c.7-.2,1.4-.2,2.2-.3h0ZM917.9,303.8h.6c1.4,0,2.7-.5,3.9-1.2,2.3-1.2,4.2-3,5.9-4.9v-.3c-.2-.2-.4-.4-.5-.6-1.3-1.5-2.8-2.8-4.4-3.8-1.3-.8-2.6-1.4-4.1-1.7-1.1-.2-2.1-.2-3.1,0-1.5.3-2.8,1-4.1,1.8-1.7,1.2-3.2,2.5-4.6,4.1v.3c.4.4.7.8,1.1,1.2,1.5,1.6,3.2,2.9,5.2,3.9,1.3.6,2.7,1,4.1,1.1h0Z"/>
      <g>
        <path class="cls-19" d="M918.3,289.9c1.5,0,3,.4,4.4,1,1.8.8,3.5,2,4.9,3.4.9.8,1.8,1.8,2.5,2.8.2.4.2.6,0,.9-.8,1-1.7,2-2.6,2.8-.8.7-1.6,1.4-2.5,2-1.2.8-2.5,1.5-3.9,1.9-1.2.4-2.5.5-3.8.3-1.1,0-2.2-.4-3.2-.8-1.5-.6-2.8-1.5-4.1-2.5s-2.5-2.3-3.6-3.6c-.4-.5-.4-.7,0-1.2,1.7-2.2,3.7-3.9,6-5.3s2.4-1.2,3.7-1.5c.7-.2,1.4-.2,2.2-.3h0ZM918.2,303.8h.6c1.4,0,2.7-.5,3.9-1.2,2.3-1.2,4.2-3,5.9-4.9v-.3c-.2-.2-.4-.4-.5-.6-1.3-1.5-2.8-2.8-4.4-3.8-1.3-.8-2.6-1.4-4.1-1.7-1-.2-2.1-.2-3.1,0-1.5.3-2.8,1-4.1,1.8-1.7,1.2-3.2,2.5-4.6,4.1v.3c.4.4.7.8,1.1,1.2,1.5,1.6,3.2,2.9,5.2,3.9,1.3.6,2.7,1,4.1,1.1h0Z"/>
        <path class="cls-19" d="M915.2,304.4c-2.2,0-4-1.7-3.9-3.7,0-2.1,1.8-3.7,3.9-3.7s3.8,1.6,3.8,3.7-1.7,3.7-3.8,3.7h0ZM916.5,300.7c0-.8-.5-1.3-1.3-1.3s-1.5.6-1.5,1.3.8,1.3,1.5,1.3,1.2-.6,1.2-1.3h0Z"/>
      </g>
    </g>
    <g>
      <circle class="cls-2" cx="984" cy="188.1" r="24.1"/>
      <g>
        <path class="cls-19" d="M972.5,193.6h1.5v4.5h4.5v1.6h-6.1v-6.1Z"/>
        <path class="cls-19" d="M995.6,193.6v6.1h-6.1v-1.6h4.5v-4.5h1.6Z"/>
        <path class="cls-19" d="M974,182.7h-1.6v-6.1h6.1v1.6h-4.5v4.5h0Z"/>
        <path class="cls-19" d="M994,182.7v-4.5h-4.5v-1.6h6.1v6.1h-1.6Z"/>
        <g>
          <path class="cls-19" d="M985.1,179.6c.6,0,1.2.2,1.8.3,3.6,1,6,4.4,5.7,8.1-.3,3.7-3.1,6.7-6.7,7.1h-1.7c-3.2-.2-6-2.5-6.8-5.6-.2-.6-.2-1.2-.4-1.8v-1.1c.3-3.3,2.5-6,5.8-6.8.5-.2,1.1-.2,1.7-.3h.7ZM984.7,194.8c4,0,7.3-3.3,7.3-7.3s-3.3-7.4-7.3-7.3c-4,0-7.2,3.3-7.3,7.3,0,4.1,3.3,7.4,7.3,7.3Z"/>
          <path class="cls-19" d="M978.1,187.5c0-3.7,3-6.6,6.7-6.6s6.6,3.1,6.6,6.7-3,6.7-6.7,6.7-6.6-3.1-6.6-6.7h0ZM984.7,193.7c3.4,0,6.1-2.8,6.1-6.1s-2.8-6.1-6.1-6.1-6.1,2.8-6.1,6.1,2.8,6.1,6.1,6.1h0Z"/>
          <path class="cls-19" d="M983.2,185.5c-.2.2-.2.2-.4.3,0,0-.2-.2-.2-.3s.2-.2.2-.3l.3.3h0Z"/>
          <path class="cls-19" d="M983.7,183.5c.2.2.3.3.2.4,0,.2-.2.2-.3.4,0,0-.2-.2-.2-.3s0-.2.2-.5h0Z"/>
          <path class="cls-19" d="M981,184.7c-.2-.2-.2-.3-.2-.4,0-.2.2-.2.2-.3,0,0,.2.2.2.3s-.2.2-.2.5h0Z"/>
          <path class="cls-19" d="M983.2,188.8c-.2.2-.2.3-.4.3,0,0-.2-.2-.2-.2,0-.2.2-.2.2-.4,0,0,.2.2.4.2h0Z"/>
          <path class="cls-19" d="M981.7,191.4c-.2-.2-.2-.4-.2-.5,0-.2.2-.2.2-.3,0,0,.2.2.2.3s-.2.2-.2.5Z"/>
          <path class="cls-19" d="M983.5,192.1c-.2-.2-.2-.3-.2-.4,0-.2.2-.2.2-.3,0,0,.2.2.2.3s-.2.2-.2.4h0Z"/>
          <path class="cls-19" d="M980.9,189c-.2.2-.2.2-.4.3,0,0-.2-.2-.2-.2,0-.2.2-.2.2-.3,0,0,.2.2.4.3h0Z"/>
          <circle class="cls-6" cx="988.1" cy="187.8" r="1.6"/>
        </g>
      </g>
    </g>
    <g>
      <circle class="cls-11" cx="920" cy="224.9" r="24.1"/>
      <g>
        <path class="cls-20" d="M930.5,226.7c-.2,0-.5-.2-.7-.2-.8-.2-1.6-.2-2.4,0-1.1-2.6-2.2-5.2-3.3-7.9.5-.4.9-.9,1.2-1.6v-.9c-.2-1-1-1.7-1.9-1.8-1.2,0-2.1.5-2.5,1.5,0,.2,0,.3-.2.5v.5c.3,1,.8,1.8,2,1.9h.9c0,.2.2.2.2.3,1.1,2.5,2.1,5,3.2,7.5-.8.3-1.6.7-2.3,1.3-.2.2-.4.2-.6,0-.8-.8-1.8-1.5-2.7-2.3h0c0-.4.2-.7,0-1.1-.2-.6-.7-1.2-1.1-1.1s-.7,0-1,0c-.8-1.1-1.6-2.2-2.5-3.3.4-1.1.6-2.2.6-3.2h3.2v-.5h-3.4c-1.1-3.7-3.5-4.8-6.8-4.5-2.9.2-5.4,3.7-4.8,6.7.5,2.6,2.2,4.2,4.8,4.8h.6c.8,0,1.5,0,2.2-.2.2,0,.4-.2.5-.2,1.1-.5,1.8-1.3,2.6-2.2.8,1,1.5,2.1,2.2,3.1-.2.5-.5.9-.3,1.5.3,1,1.3,1.4,2.5.8.8.8,1.8,1.5,2.6,2.3.3.2.3.4,0,.7-.2.3-.4.7-.6,1.1-1.8,0-3.7-.2-5.5-.3v.6l5.4.3c-.3,1-.2,2.1,0,3.1,0,.2.2.4.2.6,1,2.2,2.7,3.5,5.1,3.6,2.5.2,4.4-.9,5.5-3.2,1.5-2.9.4-6.8-3.2-8.2h-.2,0Z"/>
        <path class="cls-20" d="M914.9,227.6h-.2c0,0,0-.2,0-.3-.3-1.5-.5-3-.8-4.5-.2,0-.4.2-.5.2.3,1.6.6,3.2.8,4.8-.2.2-.3.2-.5.3-.7.6-.9,1.7-.5,2.5.4.9,1.2,1.5,2.2,1.4,1.2,0,1.7-.8,2.2-1.8v-.6c0-1.3-1.2-2.4-2.5-2.2h0Z"/>
      </g>
    </g>
    <g>
      <circle class="cls-12" cx="1044.8" cy="297.5" r="24.1"/>
      <g>
        <polygon class="cls-14" points="1048.5 304.2 1030.2 304.2 1041.2 299.6 1059.5 299.6 1048.5 304.2"/>
        <polygon class="cls-13" points="1048.5 300.9 1030.2 300.9 1041.2 296.6 1059.5 296.6 1048.5 300.9"/>
        <polygon class="cls-14" points="1048.5 298 1030.2 298 1041.2 293.7 1059.5 293.7 1048.5 298"/>
        <polygon class="cls-13" points="1048.5 295.1 1030.2 295.1 1041.2 290.8 1059.5 290.8 1048.5 295.1"/>
      </g>
    </g>
    <g>
      <circle class="cls-5" cx="984" cy="335.1" r="24.1"/>
      <g>
        <path class="cls-19" d="M977.6,347.2c.4-.5.6-.8.9-1.2-.7-.7-1.5-1.4-2.1-2.2-.2-.2-.2-.6-.3-.9.3,0,.8,0,1,.2.6.5,1.2,1.2,1.7,1.7.2,0,.3,0,.5-.2-.2-1.1-.2-2.2-.5-3.2-.3-1.2-.9-2.5-1.2-3.8-1.2-4.4,1.8-8.8,6.2-9.4,2.4-.3,2.5-.2,3.2,2.3-.8,0-1.7,0-2.5-.2,0,0-.2.2-.2.2.4.4.8.7,1,1.1.2.3.2.7.4,1-.3,0-.8,0-1-.3-.4-.2-.7-.6-1-.9-.6-.8-1.2-.8-1.9,0,.6,1.2,2.2,1.7,2.3,3.2l-.3.3c-.9-.8-1.8-1.7-2.9-2.7-.2.4-.5.7-.8,1.2.5.5,1,.8,1.4,1.4.4.5.6,1,.9,1.5-.5-.2-1.1-.5-1.5-.8-.3-.2-.6-.5-.8-.8-.2,0-.2,0-.4,0,0,.8,0,1.7.3,2.5.3,1.2.8,2.5,1.3,3.8.9,2.8.2,5.2-1.8,7.3-.5.5-1.2.7-1.7,0-1-1-2-2-2.9-3-.2-.2-.2-.5-.2-.8.3,0,.8,0,.9.2.8.7,1.5,1.5,2.3,2.2h0l-.2.2h0Z"/>
        <path class="cls-19" d="M985.5,338.9c.5-.3.7-.5,1.2-.8l-2.5-2.5c.6-.2,1.2-.2,1.7.4.5.5.9.8,1.4,1.2.9-.6.9-1.2.2-1.8-.3-.3-.7-.6-.9-1-.2-.2,0-.5,0-.8.2,0,.5,0,.8.2.4.2.6.6,1.3.8,0-.7,0-1.5-.2-2.2-.3-1.2-.8-2.3-1.2-3.5-.8-2.6-.3-5.1,1.6-7.1.6-.7,1.2-.8,1.9,0,.9.9,1.8,1.8,2.7,2.7.2.2.2.5.2.8-.3,0-.7,0-.9-.2-.7-.6-1.4-1.3-2.1-2.1-.3.5-.6.8-.9,1.2.6.6,1.3,1.2,1.8,1.8.2.2.2.6.2.9-.3,0-.7,0-.9-.2-.5-.4-.9-.9-1.4-1.4-.2,0-.2,0-.4.2,0,.9.2,1.8.3,2.7.3,1.2.8,2.4,1.2,3.6,1.2,4.3-1.5,8.8-5.8,9.6-2.5.5-2.9.2-3.5-2.3,1,0,2.1.2,3.1.2,0,0,0-.2.2-.3-.5-.5-.9-.8-1.2-1.3-.2-.2-.2-.6-.2-.9.3,0,.6,0,.8.2.6.5,1.2,1.2,1.8,1.8h-.2Z"/>
        <path class="cls-19" d="M977.9,340.2c-2.3-.9-4.2-.5-5.9,1.2-.3.2-1.1,0-1.6,0,0-.5-.2-1.2.2-1.5,1.3-1.4,2.9-2.2,4.8-2.4,1.2,0,2.1.2,2.2,1.5,0,.4.2.7.3,1.2h0Z"/>
        <path class="cls-19" d="M990.5,329.7c2.2.6,4,.4,5.7-1.2.2-.2,1.2-.2,1.5.2s.2,1.2,0,1.5c-1.5,1.6-3.5,2.5-5.8,2-.6-.2-1-1.4-1.5-2.2,0,0,.2-.2.2-.3h0Z"/>
      </g>
    </g>
    <g>
      <circle class="cls-8" cx="1046.9" cy="224.9" r="24.1"/>
      <g>
        <path class="cls-20" d="M1067.4,228.3c1.2,0,2.3,0,3.4-.2v-3.2h-3.4v3.4Z"/>
        <path class="cls-20" d="M1053.6,231.6h3.3v-3.2h-3.3v3.2Z"/>
        <path class="cls-20" d="M1046.4,207.6h-3.2v3.3h3.2v-3.3Z"/>
        <path class="cls-20" d="M1068.7,235.5c-.6-.2-1.4-.3-2.5-.3h-5.8c-2.2,0-3.5,1.4-3.5,3.5v5.9c0,2,0,1.5.2,2.1,5-2.3,9.1-6.3,11.6-11.2h0Z"/>
        <path class="cls-20" d="M1045.7,235.2c-2,.2-4,0-6.1,0v-9.7c0-2.9-1.2-4.1-4.1-4.1h-8.6c-2.9,0-3,.3-3.8,1.5v2c0,5.1,1.6,9.9,4.4,13.8h8.8v5.9c0,.8,0,1.3.2,1.8,3.2,1.6,6.9,2.5,10.8,2.5h.2c2.2-1,2.7-1.8,2.7-4.4v-5.1c0-2.8-1.5-4.5-4.3-4.3h-.2,0Z"/>
        <path class="cls-20" d="M1025.3,214.3h7.1c2.3,0,3.7-1.4,3.7-3.7v-5.8c0-1.9,0-1.2,0-1.6-4.6,2.4-8.4,6.3-10.7,11h-.2Z"/>
        <path class="cls-20" d="M1066.3,217.9c1.9,0,2.8-.2,3.5-1.2-2.5-7.1-8.3-12.6-15.4-14.9-.7.7-.9,1.6-.9,3.2v9.5h-3.5c-1.9,0-3.3,1.5-3.3,3.4v3.7c0,1.8,1.4,3.2,3.2,3.2h3.2c2.5,0,3.8-1.3,3.8-3.8v-3h9.5,0Z"/>
      </g>
    </g>
  </g>
  <g class="cls-22">
    <circle class="cls-9" cx="1162.6" cy="261.6" r="31.8" transform="translate(703.1 1361.1) rotate(-80)"/>
    <g>
      <path class="cls-19" d="M1147.3,268.8h2v6h6v2.2h-8v-8.1h0Z"/>
      <path class="cls-19" d="M1177.7,268.8v8.1h-8.1v-2.2h6v-6h2.2,0Z"/>
      <path class="cls-19" d="M1149.3,254.3h-2.2v-8.1h8.1v2.2h-6v6h0Z"/>
      <path class="cls-19" d="M1175.7,254.3v-5.9h-6v-2.2h8.1v8h-2.2,0Z"/>
      <g>
        <path class="cls-19" d="M1163.9,250.3c.8,0,1.5.2,2.3.4,4.8,1.3,7.9,5.8,7.5,10.8-.4,4.8-4.1,8.8-8.8,9.5-.3,0-.7,0-1,0h-1.2c-4.1-.3-7.9-3.4-9-7.4-.2-.8-.3-1.6-.5-2.5v-1.4c.4-4.4,3.4-7.9,7.6-9,.7-.2,1.4-.3,2.2-.4h.9,0ZM1163.5,270.4c5.3,0,9.6-4.4,9.6-9.6s-4.4-9.8-9.6-9.6c-5.3,0-9.5,4.4-9.6,9.6,0,5.4,4.4,9.8,9.6,9.6Z"/>
        <path class="cls-19" d="M1154.7,260.6c0-4.8,3.9-8.8,8.8-8.8s8.8,4.1,8.8,8.8-3.9,8.8-8.8,8.8-8.8-4.1-8.8-8.8h0ZM1163.5,268.8c4.5,0,8.1-3.7,8.1-8.1s-3.7-8.1-8-8.1-8.1,3.7-8.1,8.1,3.7,8.1,8,8.1h0Z"/>
        <path class="cls-19" d="M1161.5,258c-.2.2-.3.3-.5.4,0,0-.3-.3-.3-.4s.2-.3.3-.4l.4.4h.2Z"/>
        <path class="cls-19" d="M1162,255.5c.2.3.4.4.3.5,0,.2-.2.3-.4.5,0,0-.3-.3-.3-.4s0-.3.3-.6h0Z"/>
        <path class="cls-19" d="M1158.6,257c-.2-.3-.3-.4-.3-.5,0-.2.2-.3.3-.4,0,0,.3.2.3.4s-.2.3-.3.6h0Z"/>
        <path class="cls-19" d="M1161.3,262.5c-.2.2-.3.4-.5.4,0,0-.3-.2-.3-.3,0-.2.2-.3.3-.5,0,0,.2.2.5.3h0v.2Z"/>
        <path class="cls-19" d="M1159.6,265.8c-.2-.3-.3-.5-.3-.6,0-.2.2-.3.3-.4,0,0,.3.2.3.4s-.2.3-.3.6Z"/>
        <path class="cls-19" d="M1161.9,266.8c-.2-.3-.3-.4-.3-.5,0-.2.2-.3.3-.4,0,0,.3.3.3.4s-.2.3-.3.5h0Z"/>
        <path class="cls-19" d="M1158.5,262.7c-.2.2-.3.3-.5.4,0,0-.3-.2-.3-.3,0-.2.2-.3.3-.4,0,0,.2.2.5.4h0Z"/>
        <circle class="cls-6" cx="1167.9" cy="261.1" r="2.2"/>
      </g>
    </g>
  </g>
  <g class="cls-21">
    <circle class="cls-7" cx="1383.3" cy="261.6" r="16.1"/>
    <g>
      <path class="cls-20" d="M1396.9,263.9h2.2v-2.2h-2.2v2.2h0Z"/>
      <path class="cls-20" d="M1387.7,266.1h2.2v-2.2h-2.2v2.2Z"/>
      <path class="cls-20" d="M1382.9,250.2h-2.2v2.2h2.2v-2.2Z"/>
      <path class="cls-20" d="M1397.9,268.7c-.4-.2-.9-.2-1.6-.2h-3.8c-1.5,0-2.4.9-2.4,2.4v3.9c0,1.3,0,1,.2,1.4,3.3-1.5,6.1-4.2,7.8-7.5h0Z"/>
      <path class="cls-20" d="M1382.5,268.5c-1.3,0-2.7,0-4.1,0v-6.5c0-1.9-.8-2.8-2.8-2.8h-5.8c-1.9,0-2,.2-2.5,1v1.3c0,3.5,1.1,6.6,2.9,9.2h5.9v5.1c2.2,1.1,4.6,1.7,7.2,1.7h0c1.5-.7,1.8-1.2,1.8-2.9v-3.4c0-1.9-1-3-2.8-2.8h.2Z"/>
      <path class="cls-20" d="M1369,254.6h4.8c1.5,0,2.5-.9,2.5-2.5v-3.8c0-1.3,0-.8,0-1.1-3.1,1.6-5.6,4.2-7.1,7.3h0,0Z"/>
      <path class="cls-20" d="M1396.3,257c1.3,0,1.9-.2,2.4-.8-1.7-4.7-5.5-8.4-10.3-9.9-.5.5-.6,1.1-.6,2.2v6.4h-2.4c-1.3,0-2.2,1-2.2,2.2v2.5c0,1.2.9,2.1,2.2,2.2h2.2c1.7,0,2.5-.8,2.5-2.5v-2h6.3Z"/>
    </g>
  </g>
  <g class="cls-23">
    <circle class="cls-1" cx="1280.8" cy="261.6" r="26.6"/>
    <g>
      <polygon class="cls-14" points="1285 269 1264.7 269 1276.9 264 1297 264 1285 269"/>
      <polygon class="cls-13" points="1285 265.4 1264.7 265.4 1276.9 260.7 1297 260.7 1285 265.4"/>
      <polygon class="cls-14" points="1285 262.1 1264.7 262.1 1276.9 257.5 1297 257.5 1285 262.1"/>
      <polygon class="cls-13" points="1285 258.9 1264.7 258.9 1276.9 254.2 1297 254.2 1285 258.9"/>
    </g>
  </g>
  <g class="cls-22">
    <circle class="cls-10" cx="802.5" cy="261.6" r="31.8"/>
    <g>
      <path class="cls-19" d="M794.2,277.7c.5-.6.8-1.2,1.2-1.6-.9-.9-1.9-1.8-2.8-2.8-.3-.3-.3-.8-.4-1.2.4,0,1,0,1.3.3.8.7,1.5,1.5,2.2,2.2.2,0,.4,0,.6-.2-.2-1.4-.2-2.8-.6-4.1-.4-1.6-1.2-3.2-1.6-5-1.5-5.8,2.3-11.5,8.2-12.4,3.2-.4,3.4-.3,4.2,3.1-1.2,0-2.2,0-3.4-.2,0,0-.2.2-.2.3.5.5,1,.9,1.3,1.4.3.4.3.9.5,1.3-.4,0-1,0-1.3-.4-.5-.3-.9-.8-1.3-1.2-.8-1.2-1.6-1-2.5,0,.8,1.5,2.8,2.2,3.1,4.1l-.4.4c-1.2-1.2-2.5-2.2-3.8-3.5-.3.5-.7.9-1,1.5.6.6,1.3,1.2,1.8,1.8.5.6.8,1.3,1.2,2-.7-.3-1.4-.6-2-1-.4-.3-.8-.7-1.2-1.2h-.5c0,1.2,0,2.2.4,3.4.4,1.6,1.2,3.2,1.7,5,1.2,3.8.2,6.9-2.5,9.6s-1.5.9-2.2,0c-1.3-1.3-2.6-2.6-3.8-3.9-.2-.2-.2-.7-.3-1.2.4,0,1,0,1.2.2,1,.9,1.9,1.9,3.1,2.9h0l-.3.2h0v.2h0Z"/>
      <path class="cls-19" d="M804.5,266.7c.6-.4.9-.7,1.6-1.2l-3.4-3.4c.8-.4,1.5-.2,2.2.5s1.2,1.2,1.8,1.6c1.2-.8,1.2-1.6.2-2.5-.4-.4-.9-.8-1.2-1.3-.2-.3,0-.7,0-1.2.3,0,.7,0,1,.2.5.3.8.8,1.7,1.2,0-.9,0-1.9-.3-2.8-.4-1.6-1-3.1-1.5-4.7-1-3.5-.4-6.7,2.2-9.3.8-.9,1.6-1.2,2.5,0,1.2,1.2,2.5,2.3,3.5,3.5.2.2.2.7.3,1.2-.4,0-.9,0-1.2-.2-.9-.8-1.8-1.7-2.8-2.8-.4.6-.8,1-1.2,1.6.8.8,1.7,1.6,2.5,2.5.2.3.2.8.3,1.2-.4,0-.9,0-1.2-.2-.7-.5-1.2-1.2-1.8-1.8-.2,0-.3,0-.5.2,0,1.2.2,2.5.4,3.5.4,1.6,1.2,3.2,1.5,4.8,1.5,5.7-2,11.5-7.7,12.7-3.2.6-3.8.2-4.7-3.1,1.3,0,2.8.2,4.1.3,0,0,0-.3.2-.4-.6-.6-1.2-1.2-1.6-1.7-.2-.3-.2-.8-.2-1.2.4,0,.8,0,1.2.3.8.7,1.5,1.5,2.5,2.3h-.3v.2h0,0Z"/>
      <path class="cls-19" d="M794.4,268.3c-3.1-1.2-5.6-.6-7.8,1.6-.4.3-1.4,0-2.2,0,0-.7-.2-1.6.2-2,1.7-1.8,3.8-2.9,6.4-3.2,1.5,0,2.8.2,2.8,1.9,0,.5.2.9.4,1.5h.2Z"/>
      <path class="cls-19" d="M811,254.6c2.8.8,5.3.5,7.5-1.6.3-.3,1.6-.2,1.9.2s.2,1.5,0,1.9c-2,2.2-4.7,3.2-7.6,2.6-.8-.2-1.3-1.8-2-2.8,0,0,.2-.2.3-.4h-.2Z"/>
    </g>
  </g>
  <g class="cls-23">
    <circle class="cls-15" cx="684.3" cy="261.6" r="26.6"/>
    <path class="cls-19" d="M683.7,253.4c1.7,0,3.3.5,4.8,1.1,2,.9,3.8,2.2,5.5,3.8,1,.9,1.9,1.9,2.8,3.2.2.5.2.7,0,1-.8,1.1-1.8,2.2-2.9,3.2-.9.8-1.8,1.5-2.8,2.2-1.4.9-2.8,1.6-4.3,2.2-1.4.5-2.7.5-4.1.3-1.2,0-2.4-.5-3.5-.9-1.6-.7-3.1-1.6-4.5-2.8-1.5-1.2-2.8-2.5-4-4-.5-.5-.5-.8,0-1.3,1.8-2.4,4.1-4.3,6.6-5.8s2.6-1.4,4.1-1.6c.8-.2,1.5-.2,2.4-.3h0,0ZM683.7,268.7h.7c1.5,0,3-.6,4.3-1.3,2.5-1.4,4.7-3.3,6.5-5.5v-.3c-.2-.2-.5-.5-.6-.7-1.5-1.6-3.1-3.1-4.8-4.1-1.5-.8-2.9-1.5-4.6-1.8-1.2-.2-2.3-.2-3.4,0-1.6.3-3.2,1.1-4.5,2-1.8,1.3-3.5,2.8-5.1,4.6v.3c.5.5.8.8,1.2,1.3,1.7,1.8,3.5,3.2,5.8,4.3,1.5.7,3,1.1,4.6,1.2h0Z"/>
    <g>
      <path class="cls-19" d="M684.2,253.4c1.7,0,3.3.5,4.8,1.1,2,.9,3.8,2.2,5.5,3.8,1,.9,1.9,1.9,2.8,3.2.2.5.2.7,0,1-.8,1.1-1.8,2.2-2.9,3.2-.9.8-1.8,1.5-2.8,2.2-1.4.9-2.8,1.6-4.3,2.2-1.4.5-2.7.5-4.1.3-1.2,0-2.4-.5-3.5-.9-1.6-.7-3.1-1.6-4.5-2.8-1.5-1.2-2.8-2.5-4-4-.5-.5-.5-.8,0-1.3,1.8-2.4,4.1-4.3,6.6-5.8s2.6-1.4,4.1-1.6c.8-.2,1.5-.2,2.4-.3h0,0ZM684.2,268.7h.7c1.5,0,3-.6,4.3-1.3,2.5-1.4,4.7-3.3,6.5-5.5v-.3c-.2-.2-.5-.5-.6-.7-1.5-1.6-3.1-3.1-4.8-4.1-1.5-.8-2.9-1.5-4.6-1.8-1.1-.2-2.3-.2-3.4,0-1.6.3-3.2,1.1-4.5,2-1.8,1.3-3.5,2.8-5.1,4.6v.3c.5.5.8.8,1.2,1.3,1.7,1.8,3.5,3.2,5.8,4.3,1.5.7,3,1.1,4.6,1.2h0Z"/>
      <path class="cls-19" d="M680.9,269.3c-2.4,0-4.4-1.8-4.3-4.1,0-2.3,1.9-4.1,4.3-4.1s4.1,1.8,4.1,4.1-1.8,4.1-4.1,4.1h0ZM682.2,265.2c0-.8-.6-1.5-1.5-1.5s-1.6.7-1.6,1.5.8,1.5,1.7,1.5,1.4-.7,1.4-1.5Z"/>
    </g>
  </g>
  <g class="cls-21">
    <circle class="cls-16" cx="581.8" cy="261.6" r="16.1"/>
    <g>
      <path class="cls-20" d="M588.9,262.8h-.5c-.5-.2-1.1,0-1.6,0-.7-1.8-1.5-3.5-2.2-5.3.4-.2.6-.6.8-1.1v-.6c-.2-.7-.7-1.2-1.3-1.2s-1.4.3-1.6,1v.7c.2.7.5,1.2,1.3,1.3h.6s0,.2.2.2c.7,1.7,1.4,3.3,2.1,5-.5.2-1.1.5-1.5.8-.2.2-.2,0-.4,0-.5-.5-1.2-1-1.8-1.5h0v-.7c0-.4-.5-.8-.7-.7s-.5,0-.7,0c-.5-.7-1.1-1.5-1.6-2.2.2-.7.4-1.5.4-2.2h2.2v-.4h-2.2c-.7-2.5-2.3-3.2-4.5-3-1.9,0-3.6,2.5-3.2,4.5.4,1.8,1.5,2.8,3.2,3.2h1.8c0,0,.2,0,.4-.2.7-.4,1.2-.8,1.8-1.5.5.7,1,1.4,1.5,2.1-.2.3-.3.6-.2,1,.2.7.8.9,1.6.5.5.5,1.2,1,1.8,1.5.2.2.2.2,0,.5-.2.2-.2.5-.4.7-1.2,0-2.5,0-3.6-.2v.4l3.6.2c-.2.7-.2,1.4,0,2.1,0,.2,0,.2.2.4.7,1.5,1.8,2.3,3.4,2.4,1.6,0,2.9-.6,3.7-2.1,1-1.9.2-4.5-2.1-5.5h0v-.2h0v-.2h-.2Z"/>
      <path class="cls-20" d="M578.5,263.5h0v-.2c-.2-1-.4-2-.5-3,0,0-.2,0-.4.2.2,1.1.4,2.2.5,3.2,0,0-.2.2-.3.2-.5.4-.6,1.2-.4,1.7.2.6.8,1,1.5.9.8,0,1.2-.5,1.5-1.2v-.4c0-.8-.8-1.6-1.7-1.5h0Z"/>
    </g>
  </g>
</svg>