<?xml version="1.0" encoding="UTF-8"?>
<svg id="Layer_2" data-name="Layer 2" xmlns="http://www.w3.org/2000/svg" version="1.1" viewBox="0 0 1965.1 523.2">
  <defs>
    <style>
      .cls-1 {
        fill: #99aa8f;
      }

      .cls-1, .cls-2, .cls-3, .cls-4, .cls-5, .cls-6, .cls-7, .cls-8, .cls-9, .cls-10, .cls-11, .cls-12, .cls-13, .cls-14, .cls-15, .cls-16 {
        stroke: #231f20;
      }

      .cls-1, .cls-2, .cls-3, .cls-4, .cls-5, .cls-6, .cls-7, .cls-8, .cls-17, .cls-10, .cls-11, .cls-12, .cls-13, .cls-14, .cls-15, .cls-16, .cls-18 {
        stroke-miterlimit: 10;
      }

      .cls-2 {
        fill: #2f9297;
      }

      .cls-3, .cls-6, .cls-17, .cls-18 {
        fill: none;
      }

      .cls-3, .cls-17, .cls-18 {
        stroke-width: 5px;
      }

      .cls-4 {
        fill: #5dbd75;
      }

      .cls-5 {
        fill: #80a0b0;
      }

      .cls-7 {
        fill: #c7d1c1;
      }

      .cls-8 {
        fill: #a7d38c;
      }

      .cls-9 {
        fill: #599696;
        stroke-miterlimit: 10;
        stroke-width: 1px;
      }

      .cls-19, .cls-13 {
        fill: #000;
      }

      .cls-19, .cls-20 {
        stroke-width: 0px;
      }

      .cls-17 {
        stroke: #bcbec0;
      }

      .cls-10 {
        fill: #90a6af;
      }

      .cls-11 {
        fill: #4db488;
      }

      .cls-21 {
        opacity: .5;
      }

      .cls-22 {
        opacity: .9;
      }

      .cls-23 {
        opacity: .7;
      }

      .cls-12, .cls-14 {
        fill: #8dac7d;
      }

      .cls-13, .cls-14 {
        stroke-width: 2px;
      }

      .cls-15 {
        fill: #95bc9d;
      }

      .cls-16 {
        fill: #bfd8cc;
      }

      .cls-18 {
        stroke: #58595b;
      }

      .cls-20 {
        fill: #231f20;
      }
    </style>
  </defs>
  <g>
    <circle class="cls-3" cx="984.4" cy="261.6" r="104.5"/>
    <circle class="cls-17" cx="984.4" cy="261.6" r="86.4"/>
    <circle class="cls-18" cx="984.4" cy="261.6" r="95.6"/>
    <g>
      <circle class="cls-4" cx="898.8" cy="308.3" r="31.4"/>
      <path class="cls-19" d="M898.4,298.4c2,0,3.9.5,5.7,1.3,2.4,1.1,4.5,2.6,6.4,4.4,1.2,1.1,2.3,2.3,3.3,3.7.3.5.3.8,0,1.2-1,1.3-2.2,2.6-3.4,3.7-1.1.9-2.1,1.8-3.3,2.6-1.6,1.1-3.3,1.9-5.1,2.5-1.6.5-3.2.6-4.9.4-1.4-.1-2.8-.5-4.1-1.1-1.9-.8-3.6-1.9-5.3-3.3-1.7-1.4-3.3-3-4.7-4.7-.5-.6-.5-.9,0-1.5,2.2-2.8,4.8-5.1,7.8-6.9s3.1-1.6,4.8-1.9c.9-.2,1.8-.3,2.8-.4h0ZM898.3,316.5h.8c1.8,0,3.5-.7,5.1-1.5,3-1.6,5.5-3.9,7.7-6.4v-.4c-.2-.2-.5-.5-.7-.8-1.7-1.9-3.6-3.6-5.7-4.9-1.7-1-3.4-1.8-5.4-2.2-1.4-.2-2.7-.2-4,.1-1.9.4-3.7,1.3-5.3,2.4-2.2,1.5-4.2,3.3-6,5.4v.4c.5.5.9,1,1.4,1.5,2,2.1,4.2,3.8,6.8,5.1,1.7.8,3.5,1.3,5.4,1.4h0Z"/>
      <g>
        <path class="cls-19" d="M898.9,298.4c2,0,3.9.5,5.7,1.3,2.4,1.1,4.5,2.6,6.4,4.4,1.2,1.1,2.3,2.3,3.3,3.7.3.5.3.8,0,1.2-1,1.3-2.2,2.6-3.4,3.7-1.1.9-2.1,1.8-3.3,2.6-1.6,1.1-3.3,1.9-5.1,2.5-1.6.5-3.2.6-4.9.4-1.4-.1-2.8-.5-4.1-1.1-1.9-.8-3.6-1.9-5.3-3.3-1.7-1.4-3.3-3-4.7-4.7-.5-.6-.5-.9,0-1.5,2.2-2.8,4.8-5.1,7.8-6.9s3.1-1.6,4.8-1.9c.9-.2,1.8-.3,2.8-.4h0ZM898.8,316.5h.8c1.8,0,3.5-.7,5.1-1.5,3-1.6,5.5-3.9,7.7-6.4v-.4c-.2-.2-.5-.5-.7-.8-1.7-1.9-3.6-3.6-5.7-4.9-1.7-1-3.4-1.8-5.4-2.2-1.3-.2-2.7-.2-4,.1-1.9.4-3.7,1.3-5.3,2.4-2.2,1.5-4.2,3.3-6,5.4v.4c.5.5.9,1,1.4,1.5,2,2.1,4.2,3.8,6.8,5.1,1.7.8,3.5,1.3,5.4,1.4h0Z"/>
        <path class="cls-19" d="M894.9,317.3c-2.8,0-5.2-2.2-5.1-4.8,0-2.7,2.3-4.8,5.1-4.8s4.9,2.1,4.9,4.8-2.2,4.8-4.9,4.8h0ZM896.6,312.5c0-1-.7-1.7-1.7-1.7s-1.9.8-1.9,1.7,1,1.7,2,1.7,1.6-.8,1.6-1.7Z"/>
      </g>
    </g>
    <g>
      <circle class="cls-2" cx="984.4" cy="166" r="31.4"/>
      <g>
        <path class="cls-19" d="M969.4,173.1h2v5.9h5.9v2.1h-7.9v-8Z"/>
        <path class="cls-19" d="M999.5,173.1v8h-8v-2.1h5.9v-5.9h2.1Z"/>
        <path class="cls-19" d="M971.4,158.9h-2.1v-8h8v2.1h-5.9v5.9h0Z"/>
        <path class="cls-19" d="M997.4,158.9v-5.8h-5.9v-2.1h8v7.9h-2.1Z"/>
        <g>
          <path class="cls-19" d="M985.8,154.9c.8,0,1.5.2,2.3.4,4.7,1.3,7.8,5.7,7.4,10.6-.4,4.8-4,8.7-8.7,9.3h-2.2c-4.1-.3-7.8-3.3-8.9-7.3-.2-.8-.3-1.6-.5-2.4v-1.4c.4-4.3,3.3-7.8,7.5-8.9.7-.2,1.4-.3,2.2-.4h.9ZM985.3,174.7c5.2,0,9.5-4.3,9.5-9.5s-4.3-9.6-9.5-9.5c-5.2,0-9.4,4.3-9.5,9.5,0,5.3,4.3,9.6,9.5,9.5Z"/>
          <path class="cls-19" d="M976.7,165.1c0-4.8,3.9-8.6,8.7-8.6s8.6,4,8.6,8.7-3.9,8.7-8.7,8.7-8.6-4-8.6-8.7h0ZM985.3,173.2c4.4,0,8-3.6,8-8s-3.6-8-7.9-8-8,3.6-8,8,3.6,8,7.9,8h0Z"/>
          <path class="cls-19" d="M983.4,162.5c-.2.2-.3.3-.5.4,0,0-.3-.3-.3-.4s.2-.3.3-.4c0,0,.2.2.4.4h.1Z"/>
          <path class="cls-19" d="M984,160c.2.3.4.4.3.5,0,.2-.2.3-.4.5,0,0-.3-.3-.3-.4s0-.3.3-.6h.1Z"/>
          <path class="cls-19" d="M980.5,161.5c-.2-.3-.3-.4-.3-.5,0-.2.2-.3.3-.4,0,0,.3.2.3.4s-.2.3-.3.6h0Z"/>
          <path class="cls-19" d="M983.3,166.9c-.2.2-.3.4-.5.4,0,0-.3-.2-.3-.3,0-.2.2-.3.3-.5,0,0,.2.2.5.3h0Z"/>
          <path class="cls-19" d="M981.4,170.2c-.2-.3-.3-.5-.3-.6,0-.2.2-.3.3-.4,0,0,.3.2.3.4s-.2.3-.3.6Z"/>
          <path class="cls-19" d="M983.7,171.2c-.2-.3-.3-.4-.3-.5,0-.2.2-.3.3-.4,0,0,.3.3.3.4s-.2.3-.3.5h0Z"/>
          <path class="cls-19" d="M980.4,167.1c-.2.2-.3.3-.5.4,0,0-.3-.2-.3-.3,0-.2.2-.3.3-.4,0,0,.2.2.5.4h0Z"/>
          <circle class="cls-6" cx="989.7" cy="165.6" r="2.1"/>
        </g>
      </g>
    </g>
    <g>
      <circle class="cls-11" cx="901.1" cy="213.8" r="31.4"/>
      <g>
        <path class="cls-20" d="M914.8,216.2c-.3,0-.6-.2-.9-.2-1-.3-2.1-.2-3.1,0-1.4-3.4-2.8-6.8-4.3-10.3.7-.5,1.2-1.2,1.5-2.1v-1.2c-.3-1.3-1.3-2.2-2.5-2.3-1.6,0-2.7.6-3.2,2,0,.2,0,.4-.2.6v.7c.4,1.3,1.1,2.3,2.6,2.5h1.2c0,.2.2.3.3.4,1.4,3.3,2.7,6.5,4.1,9.8-1.1.4-2.1.9-3,1.7-.3.3-.5.2-.8,0-1.1-1-2.3-2-3.5-3h0c0-.5.2-.9,0-1.4-.2-.8-.9-1.5-1.4-1.4s-.9,0-1.3,0c-1.1-1.4-2.1-2.9-3.2-4.3.5-1.4.8-2.8.8-4.2h4.2v-.7h-4.4c-1.4-4.8-4.5-6.2-8.8-5.9-3.8.2-7,4.8-6.2,8.7.7,3.4,2.8,5.5,6.2,6.3h.8c1,0,1.9,0,2.9-.2.2,0,.5-.2.7-.3,1.4-.7,2.4-1.7,3.4-2.8,1,1.3,2,2.7,2.9,4-.3.6-.6,1.2-.4,1.9.4,1.3,1.7,1.8,3.2,1,1.1,1,2.3,2,3.4,3,.4.3.4.5,0,.9-.3.4-.5.9-.8,1.4-2.4,0-4.8-.2-7.1-.4v.8l7,.4c-.4,1.3-.3,2.7,0,4,0,.3.2.5.3.8,1.3,2.8,3.5,4.5,6.6,4.7,3.2.2,5.7-1.2,7.2-4.1,2-3.8.5-8.9-4.1-10.7h-.2.1,0Z"/>
        <path class="cls-20" d="M894.5,217.4h-.2c-.1,0,0-.3-.1-.4-.4-1.9-.7-3.9-1.1-5.8-.2,0-.5.2-.7.3.4,2.1.8,4.2,1.1,6.2-.2.2-.4.3-.6.4-.9.8-1.2,2.2-.7,3.3.5,1.2,1.6,1.9,2.9,1.8,1.5,0,2.2-1,2.8-2.3v-.8c-.1-1.7-1.6-3.1-3.3-2.8h0Z"/>
      </g>
    </g>
    <g>
      <circle class="cls-12" cx="1063.5" cy="308.3" r="31.4"/>
      <g>
        <polygon class="cls-14" points="1068.3 317 1044.5 317 1058.8 311 1082.6 311 1068.3 317"/>
        <polygon class="cls-13" points="1068.3 312.8 1044.5 312.8 1058.8 307.2 1082.6 307.2 1068.3 312.8"/>
        <polygon class="cls-14" points="1068.3 309 1044.5 309 1058.8 303.4 1082.6 303.4 1068.3 309"/>
        <polygon class="cls-13" points="1068.3 305.2 1044.5 305.2 1058.8 299.6 1082.6 299.6 1068.3 305.2"/>
      </g>
    </g>
    <g>
      <circle class="cls-5" cx="984.4" cy="357.2" r="31.4"/>
      <g>
        <path class="cls-19" d="M976.1,373c.5-.6.8-1.1,1.2-1.6-.9-.9-1.9-1.8-2.7-2.8-.3-.3-.3-.8-.4-1.2.4,0,1,0,1.3.3.8.7,1.5,1.5,2.2,2.2.2,0,.4-.1.6-.2-.2-1.4-.2-2.8-.6-4.1-.4-1.6-1.2-3.2-1.6-4.9-1.5-5.7,2.3-11.4,8.1-12.2,3.1-.4,3.3-.3,4.2,3-1.1,0-2.2-.1-3.3-.2,0,.1-.2.2-.2.3.5.5,1,.9,1.3,1.4.3.4.3.9.5,1.3-.4-.1-1-.1-1.3-.4-.5-.3-.9-.8-1.3-1.2-.8-1.1-1.6-1-2.5,0,.8,1.5,2.8,2.2,3,4.1l-.4.4c-1.2-1.1-2.4-2.2-3.8-3.5-.3.5-.7.9-1,1.5.6.6,1.3,1.1,1.8,1.8.5.6.8,1.3,1.2,2-.7-.3-1.4-.6-2-1-.4-.3-.8-.7-1.1-1.1-.2,0-.3,0-.5.1,0,1.1,0,2.2.4,3.3.4,1.6,1.1,3.2,1.7,4.9,1.2,3.7.2,6.8-2.4,9.5-.7.7-1.5.9-2.2,0-1.3-1.3-2.6-2.6-3.8-3.9-.2-.2-.2-.7-.3-1.1.4,0,1,0,1.2.2,1,.9,1.9,1.9,3,2.9h0l-.3.2h0Z"/>
        <path class="cls-19" d="M986.4,362.2c.6-.4.9-.7,1.6-1.1l-3.3-3.3c.8-.3,1.5-.2,2.2.5.6.6,1.2,1.1,1.8,1.6,1.2-.8,1.2-1.6.2-2.4-.4-.4-.9-.8-1.2-1.3-.2-.3,0-.7,0-1.1.3,0,.7,0,1,.2.5.3.8.8,1.7,1.1,0-.9,0-1.9-.3-2.8-.4-1.6-1-3-1.5-4.6-1-3.4-.4-6.6,2.1-9.2.8-.9,1.6-1.1,2.5-.1,1.2,1.2,2.4,2.3,3.5,3.5.2.2.2.7.3,1.1-.4,0-.9,0-1.2-.2-.9-.8-1.8-1.7-2.7-2.7-.4.6-.8,1-1.2,1.6.8.8,1.7,1.6,2.4,2.4.2.3.2.8.3,1.2-.4,0-.9,0-1.2-.2-.7-.5-1.2-1.2-1.8-1.8-.2,0-.3.1-.5.2,0,1.2.2,2.4.4,3.5.4,1.6,1.1,3.1,1.5,4.7,1.5,5.6-2,11.4-7.6,12.5-3.2.6-3.8.2-4.6-3,1.3.1,2.7.2,4,.3,0-.1,0-.3.2-.4-.6-.6-1.2-1.1-1.6-1.7-.2-.3-.2-.8-.2-1.2.4,0,.8,0,1.1.3.8.7,1.5,1.5,2.4,2.3h-.3Z"/>
        <path class="cls-19" d="M976.4,363.9c-3-1.2-5.5-.6-7.7,1.6-.4.3-1.4,0-2.1,0,0-.7-.2-1.6.2-2,1.7-1.8,3.8-2.9,6.3-3.1,1.5-.1,2.7.2,2.8,1.9,0,.5.2.9.4,1.5h.1Z"/>
        <path class="cls-19" d="M992.8,350.3c2.8.8,5.2.5,7.4-1.6.3-.3,1.6-.2,1.9.2s.2,1.5,0,1.9c-2,2.1-4.6,3.2-7.5,2.6-.8-.2-1.3-1.8-2-2.8,0-.1.2-.2.3-.4h-.1Z"/>
      </g>
    </g>
    <g>
      <circle class="cls-8" cx="1066.2" cy="213.8" r="31.4"/>
      <g>
        <path class="cls-20" d="M1093,218.2c1.5,0,3,0,4.4-.2v-4.2h-4.4v4.4Z"/>
        <path class="cls-20" d="M1075,222.6h4.3v-4.2h-4.3v4.2Z"/>
        <path class="cls-20" d="M1065.6,191.3h-4.2v4.3h4.2v-4.3Z"/>
        <path class="cls-20" d="M1094.7,227.6c-.8-.3-1.8-.4-3.2-.4h-7.5c-2.8,0-4.6,1.8-4.6,4.6v7.7c0,2.6,0,2,.3,2.7,6.5-3,11.9-8.2,15.1-14.6h0Z"/>
        <path class="cls-20" d="M1064.7,227.2c-2.6.2-5.2,0-7.9,0v-12.6c0-3.8-1.6-5.4-5.4-5.4h-11.2c-3.8,0-3.9.4-4.9,1.9v2.6c0,6.7,2.1,12.9,5.7,18h11.5v7.7c0,1,0,1.7.2,2.4,4.2,2.1,9,3.3,14.1,3.3h.2c2.9-1.3,3.5-2.3,3.5-5.7v-6.6c0-3.7-1.9-5.8-5.6-5.6h-.2,0Z"/>
        <path class="cls-20" d="M1038.2,200.1h9.3c3,0,4.8-1.8,4.8-4.8v-7.5c0-2.5,0-1.5,0-2.1-6,3.1-10.9,8.2-13.9,14.3h-.2,0Z"/>
        <path class="cls-20" d="M1091.5,204.7c2.5,0,3.7-.3,4.6-1.6-3.3-9.2-10.8-16.4-20.1-19.4-.9.9-1.2,2.1-1.2,4.2v12.4h-4.6c-2.5,0-4.3,1.9-4.3,4.4v4.8c0,2.4,1.8,4.1,4.2,4.2h4.2c3.3,0,4.9-1.7,5-5v-3.9h12.3-.1Z"/>
      </g>
    </g>
  </g>
  <g class="cls-22">
    <circle class="cls-9" cx="1154.9" cy="261.7" r="41.4" transform="translate(696.7 1353.6) rotate(-80)"/>
    <g>
      <path class="cls-19" d="M1135,271h2.6v7.8h7.8v2.8h-10.4v-10.6h0Z"/>
      <path class="cls-19" d="M1174.6,271v10.6h-10.6v-2.8h7.8v-7.8h2.8Z"/>
      <path class="cls-19" d="M1137.7,252.2h-2.8v-10.6h10.6v2.8h-7.8v7.8h0Z"/>
      <path class="cls-19" d="M1172,252.2v-7.7h-7.8v-2.8h10.6v10.4h-2.8Z"/>
      <g>
        <path class="cls-19" d="M1156.6,247c1.1,0,2,.3,3,.5,6.2,1.7,10.3,7.5,9.8,14-.5,6.3-5.3,11.5-11.5,12.3-.4,0-.9,0-1.3.1h-1.6c-5.4-.4-10.3-4.4-11.7-9.6-.3-1.1-.4-2.1-.7-3.2v-1.8c.5-5.7,4.4-10.3,9.9-11.7.9-.3,1.8-.4,2.9-.5h1.2,0ZM1156.1,273.1c6.9,0,12.5-5.7,12.5-12.5s-5.7-12.7-12.5-12.5c-6.9,0-12.4,5.7-12.5,12.5,0,7,5.7,12.7,12.5,12.5Z"/>
        <path class="cls-19" d="M1144.7,260.4c0-6.3,5.1-11.4,11.5-11.4s11.4,5.3,11.4,11.5-5.1,11.5-11.5,11.5-11.4-5.3-11.4-11.5h0ZM1156.1,271.1c5.8,0,10.6-4.8,10.6-10.6s-4.8-10.6-10.4-10.6-10.6,4.8-10.6,10.6,4.8,10.6,10.4,10.6h0Z"/>
        <path class="cls-19" d="M1153.5,257c-.3.3-.4.4-.7.5,0,0-.4-.4-.4-.5s.3-.4.4-.5l.5.5h.2Z"/>
        <path class="cls-19" d="M1154.2,253.7c.3.4.5.5.4.7,0,.3-.3.4-.5.7,0,0-.4-.4-.4-.5s0-.4.4-.8h0Z"/>
        <path class="cls-19" d="M1149.7,255.7c-.3-.4-.4-.5-.4-.7,0-.3.3-.4.4-.5,0,0,.4.3.4.5s-.3.4-.4.8h0Z"/>
        <path class="cls-19" d="M1153.2,262.8c-.3.3-.4.5-.7.5,0,0-.4-.3-.4-.4,0-.3.3-.4.4-.7,0,0,.3.3.7.4h0v.2Z"/>
        <path class="cls-19" d="M1151,267.2c-.3-.4-.4-.7-.4-.8,0-.3.3-.4.4-.5,0,0,.4.3.4.5s-.3.4-.4.8Z"/>
        <path class="cls-19" d="M1154,268.5c-.3-.4-.4-.5-.4-.7,0-.3.3-.4.4-.5,0,.1.4.4.4.5s-.3.4-.4.7h0Z"/>
        <path class="cls-19" d="M1149.6,263.1c-.3.3-.4.4-.7.5,0,0-.4-.3-.4-.4,0-.3.3-.4.4-.5,0,0,.3.3.7.5h0Z"/>
        <circle class="cls-6" cx="1161.8" cy="261.1" r="2.8"/>
      </g>
    </g>
  </g>
  <g class="cls-21">
    <circle class="cls-7" cx="1318.1" cy="261.6" r="20.9"/>
    <g>
      <path class="cls-20" d="M1335.8,264.6h2.9v-2.8h-2.9v2.9h0Z"/>
      <path class="cls-20" d="M1323.8,267.5h2.9v-2.8h-2.9v2.8Z"/>
      <path class="cls-20" d="M1317.6,246.7h-2.8v2.9h2.8v-2.9Z"/>
      <path class="cls-20" d="M1337.1,270.9c-.5-.2-1.2-.3-2.1-.3h-5c-1.9,0-3.1,1.2-3.1,3.1v5.1c0,1.7,0,1.3.2,1.8,4.3-2,7.9-5.5,10.1-9.7h-.1Z"/>
      <path class="cls-20" d="M1317.1,270.6c-1.7.1-3.5,0-5.3,0v-8.4c0-2.5-1.1-3.6-3.6-3.6h-7.5c-2.5,0-2.6.3-3.3,1.3v1.7c0,4.5,1.4,8.6,3.8,12h7.7v6.7c2.8,1.4,6,2.2,9.4,2.2h0c1.9-.9,2.3-1.5,2.3-3.8v-4.4c0-2.5-1.3-3.9-3.7-3.7h.2,0Z"/>
      <path class="cls-20" d="M1299.5,252.5h6.2c2,0,3.2-1.2,3.2-3.2v-5c0-1.7,0-1,0-1.4-4,2.1-7.3,5.5-9.3,9.5h-.1Z"/>
      <path class="cls-20" d="M1335,255.6c1.7,0,2.5-.2,3.1-1.1-2.2-6.1-7.2-10.9-13.4-12.9-.6.6-.8,1.4-.8,2.8v8.3h-3.1c-1.7,0-2.9,1.3-2.9,2.9v3.2c0,1.6,1.2,2.7,2.8,2.8h2.8c2.2,0,3.3-1.1,3.3-3.3v-2.6h8.2Z"/>
    </g>
  </g>
  <g class="cls-23">
    <circle class="cls-1" cx="1246.7" cy="261.6" r="34.6"/>
    <g>
      <polygon class="cls-14" points="1252.1 271.2 1225.7 271.2 1241.6 264.7 1267.8 264.7 1252.1 271.2"/>
      <polygon class="cls-13" points="1252.1 266.5 1225.7 266.5 1241.6 260.4 1267.8 260.4 1252.1 266.5"/>
      <polygon class="cls-14" points="1252.1 262.3 1225.7 262.3 1241.6 256.2 1267.8 256.2 1252.1 262.3"/>
      <polygon class="cls-13" points="1252.1 258.1 1225.7 258.1 1241.6 252 1267.8 252 1252.1 258.1"/>
    </g>
  </g>
  <g class="cls-22">
    <circle class="cls-10" cx="810.2" cy="261.6" r="41.4"/>
    <g>
      <path class="cls-19" d="M799.4,282.5c.7-.8,1.1-1.5,1.6-2.1-1.2-1.2-2.5-2.4-3.6-3.7-.4-.4-.4-1.1-.5-1.6.5,0,1.3,0,1.7.4,1.1.9,2,2,2.9,2.9.3,0,.5-.1.8-.3-.3-1.8-.3-3.7-.8-5.4-.5-2.1-1.6-4.2-2.1-6.5-2-7.5,3-15,10.7-16.1,4.1-.5,4.4-.4,5.5,4-1.5,0-2.9,0-4.4-.3,0,0-.3.3-.3.4.7.7,1.3,1.2,1.7,1.8.4.5.4,1.2.7,1.7-.5,0-1.3,0-1.7-.5-.7-.4-1.2-1.1-1.7-1.6-1.1-1.5-2.1-1.3-3.3,0,1.1,2,3.7,2.9,4,5.4l-.5.5c-1.6-1.5-3.2-2.9-5-4.6-.4.7-.9,1.2-1.3,2,.8.8,1.7,1.5,2.4,2.4.7.8,1.1,1.7,1.6,2.6-.9-.4-1.8-.8-2.6-1.3-.5-.4-1.1-.9-1.5-1.5h-.7c0,1.5,0,2.9.5,4.4.5,2.1,1.5,4.2,2.2,6.5,1.6,4.9.3,9-3.2,12.5s-2,1.2-2.9,0c-1.7-1.7-3.4-3.4-5-5.1-.3-.3-.3-.9-.4-1.5.5,0,1.3,0,1.6.3,1.3,1.2,2.5,2.5,4,3.8h0l-.4.3h0v.2h0Z"/>
      <path class="cls-19" d="M812.8,268.2c.8-.5,1.2-.9,2.1-1.5l-4.4-4.4c1.1-.5,2-.2,2.9.7s1.6,1.5,2.4,2.1c1.6-1.1,1.6-2.1.3-3.2-.5-.5-1.2-1.1-1.6-1.7-.3-.4,0-.9,0-1.5.4,0,.9,0,1.3.3.7.4,1.1,1.1,2.2,1.5,0-1.2,0-2.5-.4-3.7-.5-2.1-1.3-4-2-6.1-1.3-4.5-.5-8.7,2.8-12.1,1.1-1.2,2.1-1.5,3.3,0,1.6,1.6,3.2,3,4.6,4.6.3.3.3.9.4,1.5-.5,0-1.2,0-1.6-.3-1.2-1.1-2.4-2.2-3.6-3.6-.5.8-1.1,1.3-1.6,2.1,1.1,1.1,2.2,2.1,3.2,3.2.3.4.3,1.1.4,1.6-.5,0-1.2,0-1.6-.3-.9-.7-1.6-1.6-2.4-2.4-.3,0-.4,0-.7.3,0,1.6.3,3.2.5,4.6.5,2.1,1.5,4.1,2,6.2,2,7.4-2.6,15-10,16.5-4.2.8-5,.3-6.1-4,1.7,0,3.6.3,5.3.4,0,0,0-.4.3-.5-.8-.8-1.6-1.5-2.1-2.2-.3-.4-.3-1.1-.3-1.6.5,0,1.1,0,1.5.4,1.1.9,2,2,3.2,3h-.4v.2h.1Z"/>
      <path class="cls-19" d="M799.7,270.3c-4-1.6-7.3-.8-10.2,2.1-.5.4-1.8,0-2.8,0,0-.9-.3-2.1.3-2.6,2.2-2.4,5-3.8,8.3-4.1,2,0,3.6.3,3.7,2.5,0,.7.3,1.2.5,2h.2Z"/>
      <path class="cls-19" d="M821.3,252.5c3.7,1.1,6.9.7,9.8-2.1.4-.4,2.1-.3,2.5.3s.3,2,0,2.5c-2.6,2.8-6.1,4.2-9.9,3.4-1.1-.3-1.7-2.4-2.6-3.7,0,0,.3-.3.4-.5h-.2,0Z"/>
    </g>
  </g>
  <g class="cls-23">
    <circle class="cls-15" cx="718.4" cy="261.6" r="34.6"/>
    <path class="cls-19" d="M717.7,250.9c2.2,0,4.3.6,6.3,1.4,2.6,1.2,5,2.9,7.1,4.9,1.3,1.2,2.5,2.5,3.6,4.1.3.6.3.9,0,1.3-1.1,1.4-2.4,2.9-3.8,4.1-1.2,1-2.3,2-3.6,2.9-1.8,1.2-3.6,2.1-5.6,2.8-1.8.6-3.5.7-5.4.4-1.5-.1-3.1-.6-4.5-1.2-2.1-.9-4-2.1-5.8-3.6-1.9-1.5-3.6-3.3-5.2-5.2-.6-.7-.6-1,0-1.7,2.4-3.1,5.3-5.6,8.6-7.6s3.4-1.8,5.3-2.1c1-.2,2-.3,3.1-.4h-.1ZM717.7,270.9h.9c2,0,3.9-.8,5.6-1.7,3.3-1.8,6.1-4.3,8.5-7.1v-.4c-.2-.2-.6-.6-.8-.9-1.9-2.1-4-4-6.3-5.4-1.9-1.1-3.8-2-6-2.4-1.5-.2-3-.2-4.4,0-2.1.4-4.1,1.4-5.8,2.6-2.4,1.7-4.6,3.6-6.6,6v.4c.6.6,1,1.1,1.5,1.7,2.2,2.3,4.6,4.2,7.5,5.6,1.9.9,3.9,1.4,6,1.5h-.1Z"/>
    <g>
      <path class="cls-19" d="M718.3,250.9c2.2,0,4.3.6,6.3,1.4,2.6,1.2,5,2.9,7.1,4.9,1.3,1.2,2.5,2.5,3.6,4.1.3.6.3.9,0,1.3-1.1,1.4-2.4,2.9-3.8,4.1-1.2,1-2.3,2-3.6,2.9-1.8,1.2-3.6,2.1-5.6,2.8-1.8.6-3.5.7-5.4.4-1.5-.1-3.1-.6-4.5-1.2-2.1-.9-4-2.1-5.8-3.6-1.9-1.5-3.6-3.3-5.2-5.2-.6-.7-.6-1,0-1.7,2.4-3.1,5.3-5.6,8.6-7.6s3.4-1.8,5.3-2.1c1-.2,2-.3,3.1-.4h-.1ZM718.3,270.9h.9c2,0,3.9-.8,5.6-1.7,3.3-1.8,6.1-4.3,8.5-7.1v-.4c-.2-.2-.6-.6-.8-.9-1.9-2.1-4-4-6.3-5.4-1.9-1.1-3.8-2-6-2.4-1.4-.2-3-.2-4.4,0-2.1.4-4.1,1.4-5.8,2.6-2.4,1.7-4.6,3.6-6.6,6v.4c.6.6,1,1.1,1.5,1.7,2.2,2.3,4.6,4.2,7.5,5.6,1.9.9,3.9,1.4,6,1.5h0Z"/>
      <path class="cls-19" d="M714,271.6c-3.1,0-5.7-2.4-5.6-5.3,0-3,2.5-5.3,5.6-5.3s5.4,2.3,5.4,5.3-2.4,5.3-5.4,5.3h0ZM715.7,266.3c0-1.1-.8-1.9-1.9-1.9s-2.1.9-2.1,1.9,1.1,1.9,2.2,1.9,1.8-.9,1.8-1.9Z"/>
    </g>
  </g>
  <g class="cls-21">
    <circle class="cls-16" cx="647" cy="261.6" r="20.9"/>
    <g>
      <path class="cls-20" d="M656.2,263.2h-.6c-.7-.2-1.4,0-2.1,0-.9-2.3-1.9-4.5-2.9-6.9.5-.3.8-.8,1-1.4v-.8c-.2-.9-.9-1.5-1.7-1.5s-1.8.4-2.1,1.3v.9c.3.9.7,1.5,1.7,1.7h.8s0,.2.2.3c.9,2.2,1.8,4.3,2.7,6.5-.7.3-1.4.6-2,1.1-.2.2-.3,0-.5,0-.7-.7-1.5-1.3-2.3-2h0v-.9c0-.5-.6-1-.9-.9s-.6,0-.9,0c-.7-.9-1.4-1.9-2.1-2.9.3-.9.5-1.9.5-2.8h2.8v-.5h-2.9c-.9-3.2-3-4.1-5.9-3.9-2.5,0-4.7,3.2-4.1,5.8.5,2.3,1.9,3.7,4.1,4.2h2.4c.1,0,.3,0,.5-.2.9-.5,1.6-1.1,2.3-1.9.7.9,1.3,1.8,1.9,2.7-.2.4-.4.8-.3,1.3.3.9,1.1,1.2,2.1.7.7.7,1.5,1.3,2.3,2,.3.2.3.3,0,.6-.2.3-.3.6-.5.9-1.6,0-3.2-.1-4.7-.3v.5l4.7.3c-.3.9-.2,1.8,0,2.7,0,.2,0,.3.2.5.9,1.9,2.3,3,4.4,3.1,2.1.1,3.8-.8,4.8-2.7,1.3-2.5.3-5.9-2.7-7.1h0v-.2h0v-.2h-.2Z"/>
      <path class="cls-20" d="M642.7,264.1h-.1v-.3c-.3-1.3-.5-2.6-.7-3.9-.1,0-.3,0-.5.2.3,1.4.5,2.8.7,4.1-.1,0-.3.2-.4.3-.6.5-.8,1.5-.5,2.2.3.8,1.1,1.3,1.9,1.2,1,0,1.5-.7,1.9-1.5v-.5c0-1.1-1.1-2.1-2.2-1.9h0Z"/>
    </g>
  </g>
</svg>