<?xml version="1.0" encoding="UTF-8"?>
<svg id="Layer_2" data-name="Layer 2" xmlns="http://www.w3.org/2000/svg" viewBox="0 0 63.83 63.83">
  <defs>
    <style>
      .cls-1 {
        fill: #2f9297;
      }

      .cls-1, .cls-2 {
        stroke: #231f20;
        stroke-miterlimit: 10;
      }

      .cls-2 {
        fill: none;
      }

      .cls-3 {
        fill: #000;
        stroke-width: 0px;
      }
    </style>
  </defs>
  <g id="Layer_1-2" data-name="Layer 1">
    <g>
      <circle class="cls-1" cx="31.92" cy="31.92" r="31.42"/>
      <g>
        <path class="cls-3" d="M16.88,38.96h2.01v5.87h5.93v2.14h-7.94v-8.01Z"/>
        <path class="cls-3" d="M46.97,38.99v7.97h-7.99v-2.06h5.89v-5.91h2.1Z"/>
        <path class="cls-3" d="M18.95,24.84h-2.08v-7.98h7.99v2.07h-5.9v5.91Z"/>
        <path class="cls-3" d="M44.88,24.81v-5.84h-5.91v-2.11h7.99v7.95h-2.08Z"/>
        <g>
          <path class="cls-3" d="M33.28,20.84c.76.14,1.53.23,2.27.44,4.71,1.31,7.78,5.73,7.39,10.62-.38,4.8-4.01,8.67-8.73,9.32-.35.05-.69.09-1.04.13h-.67c-.18-.03-.36-.09-.54-.1-4.14-.32-7.76-3.29-8.87-7.32-.21-.78-.31-1.59-.46-2.38,0-.3,0-.59,0-.89.03-.16.09-.32.1-.48.41-4.3,3.33-7.81,7.49-8.93.71-.19,1.44-.27,2.16-.4.3,0,.59,0,.89,0ZM32.86,40.62c5.24-.02,9.46-4.27,9.46-9.53,0-5.27-4.28-9.57-9.51-9.54-5.24.03-9.45,4.27-9.46,9.53-.01,5.27,4.27,9.57,9.51,9.54Z"/>
          <path class="cls-3" d="M24.21,31.04c.03-4.76,3.95-8.65,8.69-8.62,4.71.03,8.58,3.96,8.57,8.69-.02,4.76-3.94,8.68-8.67,8.66-4.73-.02-8.62-3.96-8.59-8.73ZM32.82,39.1c4.36.02,7.97-3.6,7.98-7.99.01-4.38-3.58-8.01-7.95-8.03-4.36-.02-7.97,3.6-7.98,7.99-.01,4.39,3.58,8.01,7.95,8.02Z"/>
          <path class="cls-3" d="M30.87,28.42c-.2.19-.33.31-.46.43-.11-.13-.32-.27-.32-.39,0-.14.19-.32.33-.38.06-.03.23.18.44.35Z"/>
          <path class="cls-3" d="M31.47,25.85c.18.28.36.44.33.54-.05.17-.23.3-.36.45-.09-.13-.26-.26-.26-.39,0-.15.14-.31.29-.6Z"/>
          <path class="cls-3" d="M28.03,27.36c-.15-.27-.3-.42-.28-.54.03-.16.19-.29.29-.43.12.13.32.25.33.39,0,.15-.16.3-.34.59Z"/>
          <path class="cls-3" d="M30.79,32.79c-.21.19-.33.38-.47.4-.1.02-.35-.23-.33-.29.05-.17.2-.34.35-.45.03-.02.23.17.45.34Z"/>
          <path class="cls-3" d="M28.93,36.07c-.16-.3-.31-.46-.29-.58.03-.15.2-.28.31-.42.11.13.3.25.3.38,0,.15-.15.31-.32.62Z"/>
          <path class="cls-3" d="M31.24,37.08c-.15-.26-.31-.41-.29-.53.02-.15.19-.29.3-.43.11.14.29.28.31.43.02.12-.16.27-.33.53Z"/>
          <path class="cls-3" d="M27.91,33.04c-.21.18-.34.35-.48.37-.08.01-.31-.23-.29-.33.03-.15.2-.28.32-.42.12.1.24.2.45.38Z"/>
          <circle class="cls-2" cx="37.21" cy="31.45" r="2.1"/>
        </g>
      </g>
    </g>
  </g>
</svg>