<?xml version="1.0" encoding="UTF-8"?>
<svg id="Layer_2" data-name="Layer 2" xmlns="http://www.w3.org/2000/svg" version="1.1" viewBox="0 0 120 120">
  <defs>
    <style>
      .cls-1 {
        fill: #2f9297;
      }

      .cls-1, .cls-2 {
        stroke: #231f20;
        stroke-miterlimit: 10;
      }

      .cls-2 {
        fill: none;
      }

      .cls-3 {
        fill: #000;
        stroke-width: 0px;
      }
    </style>
  </defs>
  <g id="Layer_1-2" data-name="Layer 1-2">
    <g>
      <circle class="cls-1" cx="60" cy="60" r="31.4"/>
      <g>
        <path class="cls-3" d="M45,67h2v5.9h5.9v2.1h-7.9v-8Z"/>
        <path class="cls-3" d="M75.1,67.1v8h-8v-2.1h5.9v-5.9h2.1Z"/>
        <path class="cls-3" d="M47,52.9h-2.1v-8h8v2.1h-5.9v5.9h0Z"/>
        <path class="cls-3" d="M73,52.9v-5.8h-5.9v-2.1h8v7.9s-2.1,0-2.1,0Z"/>
        <g>
          <path class="cls-3" d="M61.4,48.9c.8.1,1.5.2,2.3.4,4.7,1.3,7.8,5.7,7.4,10.6-.4,4.8-4,8.7-8.7,9.3-.3,0-.7,0-1,.1h-.7c-.2,0-.4,0-.5,0-4.1-.3-7.8-3.3-8.9-7.3-.2-.8-.3-1.6-.5-2.4v-.9c0-.2,0-.3.1-.5.4-4.3,3.3-7.8,7.5-8.9.7-.2,1.4-.3,2.2-.4h.9ZM60.9,68.7c5.2,0,9.5-4.3,9.5-9.5s-4.3-9.6-9.5-9.5c-5.2,0-9.5,4.3-9.5,9.5,0,5.3,4.3,9.6,9.5,9.5Z"/>
          <path class="cls-3" d="M52.3,59.1c0-4.8,4-8.6,8.7-8.6,4.7,0,8.6,4,8.6,8.7,0,4.8-3.9,8.7-8.7,8.7-4.7,0-8.6-4-8.6-8.7ZM60.9,67.2c4.4,0,8-3.6,8-8,0-4.4-3.6-8-8-8-4.4,0-8,3.6-8,8,0,4.4,3.6,8,8,8h0Z"/>
          <path class="cls-3" d="M59,56.5c-.2.2-.3.3-.5.4-.1-.1-.3-.3-.3-.4s.2-.3.3-.4c0,0,.2.2.4.4h0Z"/>
          <path class="cls-3" d="M59.6,53.9c.2.3.4.4.3.5,0,.2-.2.3-.4.5,0-.1-.3-.3-.3-.4s.1-.3.3-.6Z"/>
          <path class="cls-3" d="M56.1,55.4c-.1-.3-.3-.4-.3-.5,0-.2.2-.3.3-.4.1.1.3.2.3.4,0,.1-.2.3-.3.6h0Z"/>
          <path class="cls-3" d="M58.9,60.9c-.2.2-.3.4-.5.4-.1,0-.4-.2-.3-.3,0-.2.2-.3.4-.5,0,0,.2.2.4.3Z"/>
          <path class="cls-3" d="M57,64.2c-.2-.3-.3-.5-.3-.6,0-.2.2-.3.3-.4.1.1.3.2.3.4s-.1.3-.3.6Z"/>
          <path class="cls-3" d="M59.3,65.2c-.1-.3-.3-.4-.3-.5,0-.2.2-.3.3-.4.1.1.3.3.3.4,0,.1-.2.3-.3.5h0Z"/>
          <path class="cls-3" d="M56,61.1c-.2.2-.3.3-.5.4,0,0-.3-.2-.3-.3,0-.2.2-.3.3-.4.1,0,.2.2.5.4Z"/>
          <circle class="cls-2" cx="65.3" cy="59.5" r="2.1"/>
        </g>
      </g>
    </g>
  </g>
</svg>