<?xml version="1.0" encoding="UTF-8"?>
<svg id="Layer_2" data-name="Layer 2" xmlns="http://www.w3.org/2000/svg" viewBox="0 0 63.83 63.83">
  <defs>
    <style>
      .cls-1 {
        fill: #4db488;
        stroke: #231f20;
        stroke-miterlimit: 10;
      }

      .cls-2 {
        fill: #231f20;
        stroke-width: 0px;
      }
    </style>
  </defs>
  <g id="Layer_1-2" data-name="Layer 1">
    <g>
      <circle class="cls-1" cx="31.92" cy="31.92" r="31.42"/>
      <g>
        <path class="cls-2" d="M45.63,34.32c-.31-.08-.61-.16-.92-.24-1.04-.27-2.08-.23-3.13-.1-1.42-3.43-2.85-6.85-4.27-10.28.7-.53,1.17-1.22,1.46-2.05,0-.26.02-.52.02-.78-.04-.15-.09-.29-.13-.44-.34-1.28-1.32-2.2-2.45-2.27-1.61-.1-2.74.59-3.25,1.98-.07.2-.14.4-.22.59v.74c.43,1.27,1.13,2.27,2.56,2.54.4.07.79.08,1.16-.08.09.15.21.29.27.45,1.36,3.26,2.71,6.52,4.06,9.78-1.11.38-2.14.9-2.96,1.73-.34.35-.52.21-.81-.04-1.14-1.01-2.31-1.99-3.46-2.98,0,0,0,0,0,0,.08-.48.21-.95.11-1.45-.15-.75-.88-1.54-1.44-1.39-.47.12-.89-.03-1.33-.01-1.07-1.43-2.14-2.87-3.21-4.3.55-1.36.83-2.76.8-4.23,1.42,0,2.83,0,4.25-.01,0-.25,0-.49,0-.74-1.47,0-2.93,0-4.4,0-1.43-4.77-4.46-6.23-8.82-5.94-3.78.25-6.97,4.79-6.2,8.66.68,3.45,2.79,5.52,6.18,6.33.27.02.54.03.8.05.97.07,1.91-.1,2.86-.24.24-.09.49-.18.73-.27,1.35-.69,2.43-1.72,3.41-2.85.98,1.35,1.97,2.7,2.95,4.04-.33.59-.61,1.19-.39,1.9.42,1.34,1.65,1.75,3.19,1.04,1.14.99,2.27,1.99,3.43,2.96.37.31.43.53.13.93-.32.43-.52.95-.77,1.43-2.38-.13-4.76-.25-7.15-.38,0,.25-.02.5-.03.75,2.32.14,4.64.28,6.96.42-.39,1.34-.29,2.68,0,4.02.11.27.21.54.31.8,1.27,2.85,3.46,4.48,6.56,4.67,3.23.19,5.69-1.23,7.21-4.08,2.03-3.81.46-8.86-4.11-10.65Z"/>
        <path class="cls-2" d="M25.37,35.59c-.09-.03-.17-.04-.25-.04-.11-.09-.09-.28-.12-.43-.37-1.93-.73-3.86-1.1-5.8-.24.09-.49.18-.73.27.38,2.08.75,4.16,1.13,6.24-.19.15-.39.29-.57.45-.93.85-1.23,2.2-.74,3.35.5,1.18,1.61,1.86,2.92,1.79,1.49-.08,2.25-1.03,2.78-2.28,0-.25.02-.5.03-.75-.11-1.7-1.62-3.12-3.34-2.8Z"/>
      </g>
    </g>
  </g>
</svg>