<?xml version="1.0" encoding="UTF-8"?>
<svg id="Layer_2" data-name="Layer 2" xmlns="http://www.w3.org/2000/svg" version="1.1" viewBox="0 0 231.2 255.1">
  <defs>
    <style>
      .cls-1 {
        fill: #2f9297;
      }

      .cls-1, .cls-2, .cls-3, .cls-4, .cls-5, .cls-6, .cls-7, .cls-8, .cls-9, .cls-10, .cls-11, .cls-12 {
        stroke-miterlimit: 10;
      }

      .cls-1, .cls-2, .cls-3, .cls-4, .cls-5, .cls-6, .cls-8, .cls-9, .cls-10, .cls-11 {
        stroke: #231f20;
      }

      .cls-2, .cls-5, .cls-7, .cls-12 {
        fill: none;
      }

      .cls-2, .cls-7, .cls-12 {
        stroke-width: 5px;
      }

      .cls-3 {
        fill: #5dbd75;
      }

      .cls-4 {
        fill: #80a0b0;
      }

      .cls-6 {
        fill: #a7d38c;
      }

      .cls-13, .cls-10 {
        fill: #000;
      }

      .cls-13, .cls-14 {
        stroke-width: 0px;
      }

      .cls-7 {
        stroke: #bcbec0;
      }

      .cls-8 {
        fill: #4db488;
      }

      .cls-9, .cls-11 {
        fill: #8dac7d;
      }

      .cls-10, .cls-11 {
        stroke-width: 2px;
      }

      .cls-12 {
        stroke: #58595b;
      }

      .cls-14 {
        fill: #231f20;
      }
    </style>
  </defs>
  <circle class="cls-2" cx="117.5" cy="127.6" r="101"/>
  <circle class="cls-7" cx="117.5" cy="127.5" r="83.5"/>
  <circle class="cls-12" cx="117.5" cy="127.6" r="92.4"/>
  <g>
    <circle class="cls-3" cx="34.7" cy="172.7" r="30.3"/>
    <path class="cls-13" d="M34.4,163.1c1.9,0,3.8.5,5.5,1.3,2.3,1.1,4.3,2.5,6.2,4.3,1.2,1.1,2.2,2.2,3.2,3.6.3.5.3.8,0,1.2-1,1.3-2.1,2.5-3.3,3.6-1.1.9-2,1.7-3.2,2.5-1.5,1.1-3.2,1.8-4.9,2.4-1.5.5-3.1.6-4.7.4-1.4,0-2.7-.5-4-1.1-1.8-.8-3.5-1.8-5.1-3.2s-3.2-2.9-4.5-4.5c-.5-.6-.5-.9,0-1.4,2.1-2.7,4.6-4.9,7.5-6.7s3-1.5,4.6-1.8c.9-.2,1.7-.3,2.7-.4h0v-.2ZM34.3,180.6h.8c1.7,0,3.4-.7,4.9-1.4,2.9-1.5,5.3-3.8,7.4-6.2v-.4c-.2-.2-.5-.5-.7-.8-1.6-1.8-3.5-3.5-5.5-4.7-1.6-1-3.3-1.7-5.2-2.1-1.4-.2-2.6-.2-3.9,0-1.8.4-3.6,1.3-5.1,2.3-2.1,1.4-4.1,3.2-5.8,5.2v.4c.5.5.9,1,1.4,1.4,1.9,2,4.1,3.7,6.6,4.9,1.6.8,3.4,1.3,5.2,1.4h-.1Z"/>
    <g>
      <path class="cls-13" d="M34.8,163.1c1.9,0,3.8.5,5.5,1.3,2.3,1.1,4.3,2.5,6.2,4.3,1.2,1.1,2.2,2.2,3.2,3.6.3.5.3.8,0,1.2-1,1.3-2.1,2.5-3.3,3.6-1.1.9-2,1.7-3.2,2.5-1.5,1.1-3.2,1.8-4.9,2.4-1.5.5-3.1.6-4.7.4-1.4,0-2.7-.5-4-1.1-1.8-.8-3.5-1.8-5.1-3.2s-3.2-2.9-4.5-4.5c-.5-.6-.5-.9,0-1.4,2.1-2.7,4.6-4.9,7.5-6.7s3-1.5,4.6-1.8c.9-.2,1.7-.3,2.7-.4h0v-.2ZM34.7,180.6h.8c1.7,0,3.4-.7,4.9-1.4,2.9-1.5,5.3-3.8,7.4-6.2v-.4c-.2-.2-.5-.5-.7-.8-1.6-1.8-3.5-3.5-5.5-4.7-1.6-1-3.3-1.7-5.2-2.1-1.3-.2-2.6-.2-3.9,0-1.8.4-3.6,1.3-5.1,2.3-2.1,1.4-4.1,3.2-5.8,5.2v.4c.5.5.9,1,1.4,1.4,1.9,2,4.1,3.7,6.6,4.9,1.6.8,3.4,1.3,5.2,1.4h-.1Z"/>
      <path class="cls-13" d="M31,181.4c-2.7,0-5-2.1-4.9-4.6,0-2.6,2.2-4.6,4.9-4.6s4.7,2,4.7,4.6-2.1,4.6-4.7,4.6h0ZM32.6,176.7c0-1-.7-1.6-1.6-1.6s-1.8.8-1.8,1.6,1,1.6,1.9,1.6,1.5-.8,1.5-1.6Z"/>
    </g>
  </g>
  <g>
    <circle class="cls-1" cx="117.5" cy="35.1" r="30.3"/>
    <g>
      <path class="cls-13" d="M103,42h1.9v5.7h5.7v2h-7.6v-7.7Z"/>
      <path class="cls-13" d="M132.1,42v7.7h-7.7v-2h5.7v-5.7h2Z"/>
      <path class="cls-13" d="M104.9,28.3h-2v-7.7h7.7v2h-5.7v5.7h0Z"/>
      <path class="cls-13" d="M130,28.3v-5.6h-5.7v-2h7.7v7.6h-2Z"/>
      <g>
        <path class="cls-13" d="M118.8,24.4c.8,0,1.4.2,2.2.4,4.5,1.3,7.5,5.5,7.2,10.2-.4,4.6-3.9,8.4-8.4,9h-2.1c-4-.3-7.5-3.2-8.6-7.1-.2-.8-.3-1.5-.5-2.3v-1.4c.4-4.2,3.2-7.5,7.2-8.6.7-.2,1.4-.3,2.1-.4h.9v.2ZM118.4,43.6c5,0,9.2-4.2,9.2-9.2s-4.2-9.3-9.2-9.2c-5,0-9.1,4.2-9.2,9.2,0,5.1,4.2,9.3,9.2,9.2Z"/>
        <path class="cls-13" d="M110,34.3c0-4.6,3.8-8.3,8.4-8.3s8.3,3.9,8.3,8.4-3.8,8.4-8.4,8.4-8.3-3.9-8.3-8.4h0ZM118.4,42.1c4.3,0,7.7-3.5,7.7-7.7s-3.5-7.7-7.6-7.7-7.7,3.5-7.7,7.7,3.5,7.7,7.6,7.7h0Z"/>
        <path class="cls-13" d="M116.5,31.8c-.2.2-.3.3-.5.4,0,0-.3-.3-.3-.4s.2-.3.3-.4c0,0,.2.2.4.4h0Z"/>
        <path class="cls-13" d="M117.1,29.3c.2.3.4.4.3.5,0,.2-.2.3-.4.5,0,0-.3-.3-.3-.4s0-.3.3-.6h0Z"/>
        <path class="cls-13" d="M113.7,30.8c-.2-.3-.3-.4-.3-.5,0-.2.2-.3.3-.4,0,0,.3.2.3.4s-.2.3-.3.6h0Z"/>
        <path class="cls-13" d="M116.4,36c-.2.2-.3.4-.5.4,0,0-.3-.2-.3-.3,0-.2.2-.3.3-.5,0,0,.2.2.5.3h0Z"/>
        <path class="cls-13" d="M114.6,39.2c-.2-.3-.3-.5-.3-.6,0-.2.2-.3.3-.4,0,0,.3.2.3.4s-.2.3-.3.6Z"/>
        <path class="cls-13" d="M116.8,40.2c-.2-.3-.3-.4-.3-.5,0-.2.2-.3.3-.4,0,0,.3.3.3.4s-.2.3-.3.5h0Z"/>
        <path class="cls-13" d="M113.6,36.2c-.2.2-.3.3-.5.4,0,0-.3-.2-.3-.3,0-.2.2-.3.3-.4,0,0,.2.2.5.4h0Z"/>
        <circle class="cls-5" cx="122.6" cy="34.8" r="2"/>
      </g>
    </g>
  </g>
  <g>
    <circle class="cls-8" cx="37" cy="81.3" r="30.3"/>
    <g>
      <path class="cls-14" d="M50.2,83.7c-.3,0-.6-.2-.9-.2-1-.3-2-.2-3,0-1.4-3.3-2.7-6.6-4.2-10,.7-.5,1.2-1.2,1.4-2v-1.2c-.3-1.3-1.3-2.1-2.4-2.2-1.5,0-2.6.6-3.1,1.9,0,.2,0,.4-.2.6v.7c.4,1.3,1.1,2.2,2.5,2.4h1.2c0,.2.2.3.3.4,1.4,3.2,2.6,6.3,4,9.5-1.1.4-2,.9-2.9,1.6-.3.3-.5.2-.8,0-1.1-1-2.2-1.9-3.4-2.9h0c0-.5.2-.9,0-1.4-.2-.8-.9-1.4-1.4-1.4h-1.3c-1.1-1.4-2-2.8-3.1-4.2.5-1.4.8-2.7.8-4.1h4.1v-.7h-4.3c-1.4-4.6-4.3-6-8.5-5.7-3.7.2-6.8,4.6-6,8.4.7,3.3,2.7,5.3,6,6.1h.8c1,0,1.8,0,2.8-.2.2,0,.5-.2.7-.3,1.4-.7,2.3-1.6,3.3-2.7,1,1.3,1.9,2.6,2.8,3.9-.3.6-.6,1.2-.4,1.8.4,1.3,1.6,1.7,3.1,1,1.1,1,2.2,1.9,3.3,2.9.4.3.4.5,0,.9-.3.4-.5.9-.8,1.4-2.3,0-4.6-.2-6.9-.4v.8l6.8.4c-.4,1.3-.3,2.6,0,3.9,0,.3.2.5.3.8,1.3,2.7,3.4,4.3,6.4,4.5,3.1.2,5.5-1.2,7-4,1.9-3.7.5-8.6-4-10.3h-.2.2Z"/>
      <path class="cls-14" d="M30.6,84.8h-.2v-.4c-.4-1.8-.7-3.8-1.1-5.6-.2,0-.5.2-.7.3.4,2,.8,4.1,1.1,6-.2.2-.4.3-.6.4-.9.8-1.2,2.1-.7,3.2.5,1.2,1.5,1.8,2.8,1.7,1.4,0,2.1-1,2.7-2.2v-.8c0-1.6-1.5-3-3.2-2.7h0Z"/>
    </g>
  </g>
  <g>
    <circle class="cls-9" cx="193.9" cy="172.7" r="30.3"/>
    <g>
      <polygon class="cls-11" points="198.6 181.1 175.6 181.1 189.4 175.3 212.4 175.3 198.6 181.1"/>
      <polygon class="cls-10" points="198.6 177 175.6 177 189.4 171.6 212.4 171.6 198.6 177"/>
      <polygon class="cls-11" points="198.6 173.4 175.6 173.4 189.4 168 212.4 168 198.6 173.4"/>
      <polygon class="cls-10" points="198.6 169.7 175.6 169.7 189.4 164.3 212.4 164.3 198.6 169.7"/>
    </g>
  </g>
  <g>
    <circle class="cls-4" cx="117.5" cy="220" r="30.3"/>
    <g>
      <path class="cls-13" d="M109.5,235.2c.5-.6.8-1.1,1.2-1.5-.9-.9-1.8-1.7-2.6-2.7-.3-.3-.3-.8-.4-1.2.4,0,1,0,1.3.3.8.7,1.4,1.4,2.1,2.1.2,0,.4,0,.6-.2-.2-1.4-.2-2.7-.6-4-.4-1.5-1.2-3.1-1.5-4.7-1.4-5.5,2.2-11,7.8-11.8,3-.4,3.2-.3,4.1,2.9-1.1,0-2.1,0-3.2-.2,0,0-.2.2-.2.3.5.5,1,.9,1.3,1.4.3.4.3.9.5,1.3-.4,0-1,0-1.3-.4-.5-.3-.9-.8-1.3-1.2-.8-1.1-1.5-1-2.4,0,.8,1.4,2.7,2.1,2.9,4l-.4.4c-1.2-1.1-2.3-2.1-3.7-3.4-.3.5-.7.9-1,1.4.6.6,1.3,1.1,1.7,1.7.5.6.8,1.3,1.2,1.9-.7-.3-1.4-.6-1.9-1-.4-.3-.8-.7-1.1-1.1h-.5c0,1.1,0,2.1.4,3.2.4,1.5,1.1,3.1,1.6,4.7,1.2,3.6.2,6.6-2.3,9.2-.7.7-1.4.9-2.1,0-1.3-1.3-2.5-2.5-3.7-3.8-.2-.2-.2-.7-.3-1.1.4,0,1,0,1.2.2,1,.9,1.8,1.8,2.9,2.8h0l-.3.2h0v.3Z"/>
      <path class="cls-13" d="M119.4,224.8c.6-.4.9-.7,1.5-1.1l-3.2-3.2c.8-.3,1.5-.2,2.1.5.6.6,1.2,1.1,1.7,1.5,1.2-.8,1.2-1.5.2-2.3-.4-.4-.9-.8-1.2-1.3-.2-.3,0-.7,0-1.1.3,0,.7,0,1,.2.5.3.8.8,1.6,1.1,0-.9,0-1.8-.3-2.7-.4-1.5-1-2.9-1.4-4.4-1-3.3-.4-6.4,2-8.9.8-.9,1.5-1.1,2.4,0,1.2,1.2,2.3,2.2,3.4,3.4.2.2.2.7.3,1.1-.4,0-.9,0-1.2-.2-.9-.8-1.7-1.6-2.6-2.6-.4.6-.8,1-1.2,1.5.8.8,1.6,1.5,2.3,2.3.2.3.2.8.3,1.2-.4,0-.9,0-1.2-.2-.7-.5-1.2-1.2-1.7-1.7-.2,0-.3,0-.5.2,0,1.2.2,2.3.4,3.4.4,1.5,1.1,3,1.4,4.5,1.4,5.4-1.9,11-7.3,12.1-3.1.6-3.7.2-4.4-2.9,1.3,0,2.6.2,3.9.3,0,0,0-.3.2-.4-.6-.6-1.2-1.1-1.5-1.6-.2-.3-.2-.8-.2-1.2.4,0,.8,0,1.1.3.8.7,1.4,1.4,2.3,2.2h-.3,0Z"/>
      <path class="cls-13" d="M109.8,226.4c-2.9-1.2-5.3-.6-7.4,1.5-.4.3-1.4,0-2,0,0-.7-.2-1.5.2-1.9,1.6-1.7,3.7-2.8,6.1-3,1.4,0,2.6.2,2.7,1.8,0,.5.2.9.4,1.4h0v.2Z"/>
      <path class="cls-13" d="M125.6,213.3c2.7.8,5,.5,7.2-1.5.3-.3,1.5-.2,1.8.2s.2,1.4,0,1.8c-1.9,2-4.4,3.1-7.2,2.5-.8-.2-1.3-1.7-1.9-2.7,0,0,.2-.2.3-.4h-.2Z"/>
    </g>
  </g>
  <g>
    <circle class="cls-6" cx="196.5" cy="81.3" r="30.3"/>
    <g>
      <path class="cls-14" d="M222.4,85.6c1.4,0,2.9,0,4.3-.2v-4.1h-4.3s0,4.3,0,4.3Z"/>
      <path class="cls-14" d="M205,89.9h4.2v-4.1h-4.2v4.1Z"/>
      <path class="cls-14" d="M196,59.6h-4.1v4.2h4.1v-4.2Z"/>
      <path class="cls-14" d="M224.1,94.7c-.8-.3-1.7-.4-3.1-.4h-7.2c-2.7,0-4.4,1.7-4.4,4.4v7.4c0,2.5,0,1.9.3,2.6,6.3-2.9,11.5-7.9,14.6-14.1h-.2Z"/>
      <path class="cls-14" d="M195.1,94.3c-2.5.2-5,0-7.6,0v-12.2c0-3.7-1.5-5.2-5.2-5.2h-10.8c-3.7,0-3.8.4-4.7,1.8v2.5c0,6.5,2,12.5,5.5,17.4h11.1v7.4c0,1,0,1.6.2,2.3,4.1,2,8.7,3.2,13.6,3.2h.2c2.8-1.3,3.4-2.2,3.4-5.5v-6.4c0-3.6-1.8-5.6-5.4-5.4h-.3Z"/>
      <path class="cls-14" d="M169.5,68.1h9c2.9,0,4.6-1.7,4.6-4.6v-7.2c0-2.4,0-1.4,0-2-5.8,3-10.5,7.9-13.4,13.8h-.2Z"/>
      <path class="cls-14" d="M221,72.6c2.4,0,3.6-.3,4.4-1.5-3.2-8.9-10.4-15.9-19.4-18.8-.9.9-1.2,2-1.2,4.1v12h-4.4c-2.4,0-4.2,1.8-4.2,4.3v4.6c0,2.3,1.7,4,4.1,4.1h4.1c3.2,0,4.7-1.6,4.8-4.8v-3.8h11.9v-.2Z"/>
    </g>
  </g>
</svg>