<?xml version="1.0" encoding="UTF-8"?>
<svg id="Layer_2" data-name="Layer 2" xmlns="http://www.w3.org/2000/svg" version="1.1" viewBox="0 0 120 120">
  <defs>
    <style>
      .cls-1 {
        fill: #80a0b0;
        stroke: #231f20;
        stroke-miterlimit: 10;
      }

      .cls-2 {
        fill: #000;
        stroke-width: 0px;
      }
    </style>
  </defs>
  <g id="Layer_1-2" data-name="Layer 1-2">
    <g>
      <circle class="cls-1" cx="60" cy="60" r="31.4"/>
      <g>
        <path class="cls-2" d="M51.7,75.8c.5-.7.8-1.1,1.2-1.6-.9-.9-1.9-1.8-2.7-2.8-.3-.3-.3-.8-.4-1.2.5,0,1,0,1.3.3.8.7,1.5,1.5,2.2,2.2.2,0,.4-.1.6-.2-.2-1.4-.2-2.8-.6-4.1-.4-1.7-1.2-3.2-1.6-4.9-1.5-5.7,2.3-11.4,8.1-12.2,3.1-.4,3.3-.3,4.2,3-1.1,0-2.2-.1-3.3-.2,0,.1-.2.2-.2.3.5.5,1,.9,1.3,1.4.3.4.3.9.5,1.3-.5-.1-1-.1-1.3-.4-.5-.3-.9-.8-1.3-1.2-.8-1.1-1.6-1-2.5,0,.8,1.5,2.8,2.2,3,4.1l-.4.4c-1.2-1.1-2.4-2.2-3.8-3.5-.4.5-.7,1-1,1.5.6.6,1.3,1.1,1.8,1.8.5.6.8,1.3,1.1,2-.7-.3-1.4-.6-2-1-.4-.3-.8-.7-1.1-1.1-.2,0-.3,0-.5.1.1,1.1.1,2.2.4,3.3.5,1.7,1.1,3.2,1.6,4.9,1.2,3.7.2,6.8-2.4,9.5-.7.7-1.5.9-2.2,0-1.3-1.3-2.6-2.5-3.9-3.9-.2-.2-.2-.7-.3-1.1.4,0,1,0,1.2.2,1,.9,1.9,1.8,3,3h0Z"/>
        <path class="cls-2" d="M62,65c.5-.4.9-.7,1.6-1.1l-3.3-3.3c1.2-.5,1.2-.5,2.2.5.6.6,1.2,1.1,1.8,1.6,1.2-.8,1.2-1.6.2-2.4-.5-.4-.9-.8-1.2-1.3-.2-.3,0-.7,0-1.1.3,0,.7,0,1,.2.5.3.8.8,1.7,1.1,0-.9,0-1.9-.3-2.8-.4-1.5-1-3-1.5-4.6-1-3.4-.4-6.6,2.1-9.2.8-.9,1.6-1.1,2.5-.1,1.2,1.2,2.4,2.3,3.5,3.5.2.2.2.7.3,1.1-.4,0-1,0-1.2-.2-.9-.8-1.8-1.7-2.7-2.7-.4.6-.8,1-1.2,1.6.8.8,1.7,1.6,2.4,2.4.2.3.2.8.3,1.2-.4,0-.9,0-1.2-.2-.7-.5-1.2-1.2-1.8-1.8-.2,0-.3.1-.5.2.1,1.2.2,2.4.4,3.5.4,1.6,1.1,3.1,1.5,4.7,1.5,5.6-2,11.5-7.6,12.5-3.2.6-3.8.2-4.5-3,1.3,0,2.6.2,4,.3,0-.1,0-.3.2-.4-.5-.5-1.2-1.1-1.6-1.7-.2-.3-.2-.8-.2-1.2.4,0,.9,0,1.1.3.8.7,1.5,1.5,2.4,2.3h0Z"/>
        <path class="cls-2" d="M52,66.6c-3-1.2-5.5-.6-7.7,1.6-.4.3-1.4,0-2.1,0,0-.7-.2-1.6.2-2,1.7-1.8,3.8-2.9,6.3-3,1.5,0,2.6.2,2.8,2,0,.5.2.9.4,1.5h0Z"/>
        <path class="cls-2" d="M68.4,53.1c2.8.8,5.2.5,7.4-1.6.3-.3,1.6-.2,1.9.2.3.4.2,1.5-.1,1.9-2,2.1-4.6,3.2-7.5,2.6-.8-.2-1.3-1.8-2-2.8.1-.1.2-.2.3-.4h0Z"/>
      </g>
    </g>
  </g>
</svg>