<?xml version="1.0" encoding="UTF-8"?>
<svg id="Layer_2" data-name="Layer 2" xmlns="http://www.w3.org/2000/svg" viewBox="0 0 63.83 63.83">
  <defs>
    <style>
      .cls-1 {
        fill: #80a0b0;
        stroke: #231f20;
        stroke-miterlimit: 10;
      }

      .cls-2 {
        fill: #000;
        stroke-width: 0px;
      }
    </style>
  </defs>
  <g id="Layer_1-2" data-name="Layer 1">
    <g>
      <circle class="cls-1" cx="31.92" cy="31.92" r="31.42"/>
      <g>
        <path class="cls-2" d="M23.64,47.68c.47-.65.79-1.07,1.17-1.59-.94-.94-1.88-1.81-2.73-2.77-.26-.29-.26-.82-.38-1.24.45.09,1.02.05,1.34.31.81.66,1.51,1.46,2.25,2.2.2-.07.4-.13.6-.2-.18-1.36-.23-2.76-.57-4.08-.43-1.65-1.2-3.21-1.64-4.86-1.49-5.68,2.33-11.41,8.06-12.19,3.1-.43,3.35-.26,4.16,2.97-1.11-.07-2.19-.14-3.27-.21-.08.11-.15.22-.23.33.46.46.98.87,1.35,1.39.26.36.31.87.46,1.32-.45-.11-.96-.11-1.33-.35-.48-.31-.9-.77-1.26-1.23-.82-1.08-1.62-1.04-2.53-.02.81,1.47,2.75,2.23,3.02,4.07l-.43.42c-1.22-1.11-2.44-2.22-3.81-3.46-.35.5-.67.95-1.03,1.46.64.64,1.27,1.15,1.75,1.78.46.61.77,1.34,1.15,2.02-.68-.34-1.39-.63-2.02-1.03-.43-.28-.75-.72-1.12-1.1-.16.04-.32.07-.47.11.12,1.1.12,2.24.4,3.3.45,1.65,1.11,3.24,1.65,4.86,1.23,3.7.23,6.83-2.44,9.54-.73.73-1.46.86-2.23.09-1.29-1.28-2.6-2.55-3.85-3.88-.22-.24-.18-.72-.26-1.09.42.05.97-.04,1.24.19,1,.87,1.9,1.85,3,2.95Z"/>
        <path class="cls-2" d="M33.87,36.92c.55-.4.93-.68,1.56-1.14l-3.29-3.29c1.17-.53,1.16-.52,2.23.53.57.56,1.19,1.06,1.82,1.6,1.16-.82,1.23-1.57.18-2.44-.45-.37-.91-.78-1.22-1.27-.17-.27-.04-.74-.04-1.12.33.06.73.03.98.21.47.34.85.81,1.68,1.15-.1-.94-.09-1.91-.33-2.81-.41-1.55-1.02-3.04-1.46-4.58-.99-3.44-.43-6.56,2.08-9.23.79-.85,1.58-1.05,2.47-.15,1.17,1.18,2.37,2.33,3.5,3.54.22.24.19.71.27,1.08-.41-.05-.95.04-1.22-.18-.92-.8-1.75-1.7-2.73-2.68-.44.59-.77,1.04-1.19,1.6.83.83,1.66,1.58,2.38,2.43.24.29.2.82.28,1.24-.42-.07-.93,0-1.22-.23-.66-.51-1.2-1.16-1.79-1.75-.16.06-.32.11-.49.17.13,1.17.15,2.38.43,3.52.4,1.6,1.07,3.14,1.51,4.73,1.54,5.63-2.02,11.45-7.57,12.47-3.2.59-3.81.18-4.55-3.02,1.32.1,2.65.2,3.99.3.05-.14.1-.27.15-.41-.55-.55-1.16-1.06-1.63-1.67-.22-.3-.17-.8-.24-1.21.37.08.85.05,1.1.27.8.69,1.53,1.49,2.38,2.34Z"/>
        <path class="cls-2" d="M23.88,38.55c-3.01-1.18-5.49-.57-7.72,1.56-.36.34-1.37,0-2.07-.03.05-.67-.17-1.58.19-1.96,1.69-1.8,3.79-2.89,6.32-3.05,1.49-.1,2.65.17,2.84,1.95.05.46.25.91.44,1.54Z"/>
        <path class="cls-2" d="M40.28,24.98c2.78.84,5.24.5,7.41-1.56.32-.3,1.56-.17,1.87.19.31.36.25,1.52-.11,1.89-2.02,2.13-4.62,3.21-7.5,2.6-.83-.18-1.35-1.8-2.02-2.77.11-.12.23-.24.34-.36Z"/>
      </g>
    </g>
  </g>
</svg>