<?xml version="1.0" encoding="UTF-8"?>
<svg id="Layer_2" data-name="Layer 2" xmlns="http://www.w3.org/2000/svg" version="1.1" viewBox="0 0 120 120">
  <defs>
    <style>
      .cls-1 {
        fill: #a7d38c;
        stroke: #231f20;
        stroke-miterlimit: 10;
      }

      .cls-2 {
        fill: #231f20;
        stroke-width: 0px;
      }
    </style>
  </defs>
  <g id="Layer_1-2" data-name="Layer 1-2">
    <g>
      <circle class="cls-1" cx="60" cy="60" r="31.4"/>
      <g>
        <path class="cls-2" d="M86.6,64.5c1.5,0,3-.1,4.4-.2v-4.2h-4.4v4.4Z"/>
        <path class="cls-2" d="M68.6,68.8h4.3v-4.2h-4.3v4.2Z"/>
        <path class="cls-2" d="M59.4,37.5h-4.2v4.3h4.2v-4.3Z"/>
        <path class="cls-2" d="M88.5,73.9c-.8-.3-1.8-.4-3.2-.4-2.5,0-5,0-7.5,0-2.8,0-4.6,1.8-4.6,4.6,0,2.6,0,5.1,0,7.7s0,2,.3,2.7c6.5-3,11.9-8.2,15.1-14.6h0Z"/>
        <path class="cls-2" d="M58.5,73.4c-2.6.2-5.2,0-7.9,0v-12.6c0-3.8-1.6-5.4-5.5-5.4-3.7,0-7.4,0-11.2,0s-3.9.4-4.9,1.9c0,.8-.1,1.7-.1,2.5,0,6.7,2.1,12.9,5.7,18h11.5v7.7c0,1,0,1.7.2,2.4,4.2,2.1,9,3.3,14,3.3h.2c2.8-1.3,3.5-2.3,3.5-5.7,0-2.2,0-4.4,0-6.6.2-3.7-1.9-5.8-5.6-5.6h0Z"/>
        <path class="cls-2" d="M32,46.3c.5,0,1.1.1,1.8.1,2.5,0,4.9,0,7.4,0,3,0,4.8-1.8,4.8-4.8,0-2.5,0-5,0-7.6s0-1.5-.1-2.1c-6,3.1-10.9,8.2-13.9,14.3Z"/>
        <path class="cls-2" d="M85.3,50.9c2.5,0,3.7-.3,4.6-1.6-3.3-9.2-10.8-16.4-20.1-19.4-.9.9-1.2,2.1-1.2,4.2v12.4c-1.7,0-3.2,0-4.6,0-2.5.1-4.3,1.9-4.3,4.4,0,1.6,0,3.2,0,4.8,0,2.4,1.8,4.1,4.2,4.2,1.4,0,2.8,0,4.2,0,3.3,0,5-1.7,5-5v-3.9h12.3,0Z"/>
      </g>
    </g>
  </g>
</svg>