<?xml version="1.0" encoding="UTF-8"?>
<svg id="Layer_2" data-name="Layer 2" xmlns="http://www.w3.org/2000/svg" viewBox="0 0 63.83 63.83">
  <defs>
    <style>
      .cls-1 {
        fill: #a7d38c;
        stroke: #231f20;
        stroke-miterlimit: 10;
      }

      .cls-2 {
        fill: #231f20;
        stroke-width: 0px;
      }
    </style>
  </defs>
  <g id="Layer_1-2" data-name="Layer 1">
    <g>
      <circle class="cls-1" cx="31.92" cy="31.92" r="31.42"/>
      <g>
        <path class="cls-2" d="M58.54,36.37c1.53-.07,2.99-.13,4.44-.2v-4.2h-4.44v4.4Z"/>
        <path class="cls-2" d="M40.55,40.71h4.34v-4.21h-4.34v4.21Z"/>
        <path class="cls-2" d="M31.31,9.44h-4.18v4.26h4.18v-4.26Z"/>
        <path class="cls-2" d="M60.39,45.78c-.77-.32-1.78-.42-3.19-.42-2.51,0-5.03-.02-7.54,0-2.84.03-4.61,1.8-4.63,4.64-.02,2.56,0,5.12,0,7.68,0,1.11.08,1.98.29,2.67,6.54-2.99,11.88-8.16,15.08-14.58Z"/>
        <path class="cls-2" d="M30.38,45.33c-2.58.16-5.18.03-7.92.03v-1.69c0-3.63,0-7.27,0-10.9,0-3.8-1.62-5.41-5.45-5.43-3.73-.02-7.45,0-11.18,0-2.64,0-3.86.38-4.87,1.89-.07.84-.11,1.69-.11,2.55,0,6.71,2.11,12.93,5.7,18.03,3.75,0,7.51,0,11.49,0v2.67c0,1.68,0,3.35,0,5.03,0,.96.05,1.73.18,2.37,4.23,2.12,9,3.32,14.05,3.32.08,0,.16,0,.25,0,2.85-1.26,3.46-2.32,3.47-5.7,0-2.19-.07-4.38.02-6.57.15-3.69-1.94-5.82-5.61-5.59Z"/>
        <path class="cls-2" d="M3.92,18.22c.53.07,1.14.1,1.85.1,2.47,0,4.94.02,7.41,0,3.03-.04,4.76-1.78,4.78-4.79.02-2.52,0-5.03,0-7.55,0-.82-.04-1.5-.15-2.09-6.04,3.14-10.94,8.18-13.89,14.33Z"/>
        <path class="cls-2" d="M57.2,22.81c2.47,0,3.72-.33,4.64-1.61-3.3-9.21-10.77-16.44-20.14-19.38-.91.88-1.19,2.09-1.19,4.16,0,3.12,0,6.25,0,9.37v3.05c-1.67,0-3.16-.05-4.64.01-2.54.11-4.26,1.88-4.31,4.39-.04,1.58-.05,3.17,0,4.75.08,2.37,1.83,4.11,4.2,4.2,1.4.05,2.8.02,4.2.01,3.27-.02,4.95-1.71,4.98-5.02,0-1.28,0-2.56,0-3.94,4.26,0,8.26,0,12.27,0Z"/>
      </g>
    </g>
  </g>
</svg>