<?xml version="1.0" encoding="UTF-8"?>
<svg id="Layer_2" data-name="Layer 2" xmlns="http://www.w3.org/2000/svg" viewBox="0 0 63.83 63.83">
  <defs>
    <style>
      .cls-1 {
        fill: #000;
        stroke-width: 0px;
      }

      .cls-2 {
        fill: #5dbd75;
        stroke: #231f20;
        stroke-miterlimit: 10;
      }
    </style>
  </defs>
  <g id="Layer_1-2" data-name="Layer 1">
    <g>
      <circle class="cls-2" cx="31.92" cy="31.92" r="31.42"/>
      <path class="cls-1" d="M31.46,22.04c1.99-.03,3.86.46,5.67,1.27,2.4,1.07,4.48,2.61,6.4,4.38,1.22,1.12,2.35,2.32,3.34,3.66.34.47.34.77-.02,1.22-1.05,1.32-2.16,2.59-3.44,3.69-1.06.91-2.12,1.81-3.26,2.61-1.56,1.11-3.28,1.93-5.14,2.46-1.6.46-3.23.61-4.87.44-1.42-.15-2.79-.54-4.11-1.12-1.91-.83-3.65-1.94-5.26-3.26-1.71-1.41-3.28-2.97-4.67-4.69-.47-.58-.47-.93-.01-1.52,2.19-2.77,4.78-5.08,7.8-6.9,1.49-.9,3.1-1.58,4.81-1.94.91-.19,1.84-.26,2.77-.38,0,.03,0,.05,0,.08ZM31.42,40.14c.27-.02.53-.06.8-.07,1.81-.09,3.49-.68,5.07-1.52,3.01-1.6,5.47-3.87,7.66-6.45.12-.14.11-.23-.01-.35-.23-.25-.45-.52-.68-.78-1.68-1.9-3.56-3.57-5.71-4.92-1.67-1.04-3.43-1.83-5.39-2.17-1.35-.23-2.68-.18-4,.11-1.93.42-3.68,1.27-5.32,2.36-2.24,1.51-4.2,3.33-5.96,5.38-.13.15-.11.25.01.39.46.51.91,1.03,1.39,1.53,1.99,2.06,4.2,3.82,6.78,5.1,1.68.84,3.46,1.32,5.35,1.38Z"/>
      <g>
        <path class="cls-1" d="M31.95,22.05c1.99-.03,3.86.46,5.67,1.27,2.4,1.07,4.48,2.61,6.4,4.38,1.22,1.12,2.35,2.32,3.34,3.66.34.47.34.77-.02,1.22-1.05,1.32-2.16,2.59-3.44,3.69-1.06.91-2.12,1.81-3.26,2.61-1.56,1.11-3.28,1.93-5.14,2.46-1.6.46-3.23.61-4.87.44-1.42-.15-2.79-.54-4.11-1.12-1.91-.83-3.65-1.94-5.26-3.26-1.71-1.41-3.28-2.97-4.67-4.69-.47-.58-.47-.93-.01-1.52,2.19-2.77,4.78-5.08,7.8-6.9,1.49-.9,3.1-1.58,4.81-1.94.91-.19,1.84-.26,2.77-.38,0,.03,0,.05,0,.08ZM31.91,40.16c.27-.02.53-.06.8-.07,1.81-.09,3.49-.68,5.07-1.52,3.01-1.6,5.47-3.87,7.66-6.45.12-.14.11-.23-.01-.35-.23-.25-.45-.52-.68-.78-1.68-1.9-3.56-3.57-5.71-4.92-1.67-1.04-3.43-1.83-5.39-2.17-1.35-.23-2.68-.18-4,.11-1.93.42-3.68,1.27-5.32,2.36-2.24,1.51-4.2,3.33-5.96,5.38-.13.15-.11.25.01.39.46.51.91,1.03,1.39,1.53,1.99,2.06,4.2,3.82,6.78,5.1,1.68.84,3.46,1.32,5.35,1.38Z"/>
        <path class="cls-1" d="M28,40.89c-2.78.02-5.2-2.18-5.15-4.82.06-2.68,2.3-4.78,5.11-4.79,2.73,0,4.92,2.11,4.94,4.78.02,2.64-2.18,4.81-4.91,4.82ZM29.67,36.1c0-.96-.74-1.68-1.7-1.67-.99.01-1.91.81-1.91,1.66,0,.85,1.01,1.73,1.96,1.7.9-.03,1.65-.8,1.65-1.69Z"/>
      </g>
    </g>
  </g>
</svg>