<?xml version="1.0" encoding="UTF-8"?>
<svg id="Layer_2" data-name="Layer 2" xmlns="http://www.w3.org/2000/svg" version="1.1" viewBox="0 0 120 120">
  <defs>
    <style>
      .cls-1 {
        fill: #5dbd75;
        stroke: #231f20;
        stroke-miterlimit: 10;
      }

      .cls-2 {
        fill: #000;
        stroke-width: 0px;
      }
    </style>
  </defs>
  <g id="Layer_1-2" data-name="Layer 1-2">
    <g>
      <circle class="cls-1" cx="60" cy="60" r="31.4"/>
      <path class="cls-2" d="M59.5,50.1c2,0,3.9.5,5.7,1.3,2.4,1.1,4.5,2.6,6.4,4.4,1.2,1.1,2.3,2.3,3.3,3.7.3.5.3.8,0,1.2-1,1.3-2.2,2.6-3.4,3.7-1.1.9-2.1,1.8-3.3,2.6-1.6,1.1-3.3,1.9-5.1,2.5-1.6.5-3.2.6-4.9.4-1.4-.2-2.8-.5-4.1-1.1-1.9-.8-3.6-1.9-5.3-3.3-1.7-1.4-3.3-3-4.7-4.7-.5-.6-.5-.9,0-1.5,2.2-2.8,4.8-5.1,7.8-6.9,1.5-.9,3.1-1.6,4.8-1.9.9-.2,1.8-.3,2.8-.4h0c0,0,0,0,0,0ZM59.5,68.2c.3,0,.5,0,.8,0,1.8,0,3.5-.7,5.1-1.5,3-1.6,5.5-3.9,7.7-6.5.1-.1.1-.2,0-.4-.2-.2-.5-.5-.7-.8-1.7-1.9-3.6-3.6-5.7-4.9-1.7-1-3.4-1.8-5.4-2.2-1.4-.2-2.7-.2-4,.1-1.9.4-3.7,1.3-5.3,2.4-2.2,1.5-4.2,3.3-6,5.4-.1.1-.1.2,0,.4.5.5.9,1,1.4,1.5,2,2.1,4.2,3.8,6.8,5.1,1.7.8,3.5,1.3,5.4,1.4h0Z"/>
      <g>
        <path class="cls-2" d="M60,50.1c2,0,3.9.5,5.7,1.3,2.4,1.1,4.5,2.6,6.4,4.4,1.2,1.1,2.3,2.3,3.3,3.7.3.5.3.8,0,1.2-1,1.3-2.2,2.6-3.4,3.7-1.1.9-2.1,1.8-3.3,2.6-1.6,1.1-3.3,1.9-5.1,2.5-1.6.5-3.2.6-4.9.4-1.4-.2-2.8-.5-4.1-1.1-1.9-.8-3.6-1.9-5.3-3.3-1.7-1.4-3.3-3-4.7-4.7-.5-.6-.5-.9,0-1.5,2.2-2.8,4.8-5.1,7.8-6.9,1.5-.9,3.1-1.6,4.8-1.9.9-.2,1.8-.3,2.8-.4h0c0,0,0,0,0,0ZM60,68.2c.3,0,.5,0,.8,0,1.8,0,3.5-.7,5.1-1.5,3-1.6,5.5-3.9,7.7-6.5.1-.1.1-.2,0-.4-.2-.2-.5-.5-.7-.8-1.7-1.9-3.6-3.6-5.7-4.9-1.7-1-3.4-1.8-5.4-2.2-1.3-.2-2.7-.2-4,.1-1.9.4-3.7,1.3-5.3,2.4-2.2,1.5-4.2,3.3-6,5.4-.1.1-.1.2,0,.4.5.5.9,1,1.4,1.5,2,2.1,4.2,3.8,6.8,5.1,1.7.8,3.5,1.3,5.4,1.4h0Z"/>
        <path class="cls-2" d="M56.1,69c-2.8,0-5.2-2.2-5.1-4.8,0-2.7,2.3-4.8,5.1-4.8,2.7,0,4.9,2.1,4.9,4.8,0,2.6-2.2,4.8-4.9,4.8h0ZM57.8,64.2c0-1-.7-1.7-1.7-1.7-1,0-1.9.8-1.9,1.7s1,1.7,2,1.7c.9,0,1.6-.8,1.6-1.7Z"/>
      </g>
    </g>
  </g>
</svg>